SplineFontDB: 3.0
FontName: BloomingGroveBold
FullName: Blooming Grove Bold
FamilyName: BloomingGroveBold
Weight: Bold
Copyright: Created by Nathan Eady, using Inkscape (http://www.inkscape.org) and FontForge 2.0 (http://fontforge.sf.net).  This font has been released into the public domain by the author.
UComments: "Blooming Grove is a primarily sans-serif font face with a smooth, curvy, rounded look, intended for displaying English-language text.  It is named for a small town in Ohio.  This is the bold weight." 
FontLog: "2009-Sep-19: Started work on the bold weight.+AAoA-2009-Sep-26: Bold lowercase letters completed.+AAoA-2009-Oct-08: Bold uppercase letters completed.+AAoA-2009-Oct-14: Printable ASCII characters completed.+AAoA-2009-Oct-15: Bold weight completed." 
Version: 006.000
DefaultBaseFilename: bgroveb
ItalicAngle: 0
UnderlinePosition: -75
UnderlineWidth: 50
Ascent: 750
Descent: 250
LayerCount: 2
Layer: 0 0 "Back"  1
Layer: 1 0 "Fore"  0
XUID: [1021 955 550171202 4380082]
FSType: 8
OS2Version: 0
OS2_WeightWidthSlopeOnly: 0
OS2_UseTypoMetrics: 1
CreationTime: 1251430800
ModificationTime: 1255652170
PfmFamily: 17
TTFWeight: 500
TTFWidth: 5
LineGap: 90
VLineGap: 0
OS2TypoAscent: 0
OS2TypoAOffset: 1
OS2TypoDescent: 0
OS2TypoDOffset: 1
OS2TypoLinegap: 90
OS2WinAscent: 0
OS2WinAOffset: 1
OS2WinDescent: 0
OS2WinDOffset: 1
HheadAscent: 0
HheadAOffset: 1
HheadDescent: 0
HheadDOffset: 1
OS2Vendor: 'PfEd'
Lookup: 258 0 0 "kern"  {"'kern'"  } ['kern' ('DFLT' <'dflt' > 'latn' <'dflt' > ) ]
DEI: 91125
KernClass2: 14 12 "'kern'" 
 5 F T f
 3 V Y
 12 seven nine P
 1 L
 1 l
 35 zero three five six eight C D G O U
 9 b e o p s
 15 a c g q r u w y
 5 h m n
 5 one i
 1 v
 1 t
 6 period
 13 a c d e g o s
 3 i j
 7 m n p r
 3 u w
 3 x z
 1 v
 1 f
 1 t
 12 comma period
 25 zero three five six eight
 4 four

StartChar: a
Encoding: 97 97 0
Width: 505
VWidth: -131
Flags: W
HStem: -0.746094 88.7344<179.593 314.781> 324.52 88.6875<179.593 314.767>
VStem: 40 88.7344<138.847 273.658> 365.266 88.6875<137.804 274.703>
LayerCount: 2
Fore
SplineSet
409.234 413.535 m 0
 433.906 413.535 453.928 393.865 453.953 369.566 c 2
 453.953 42.9414 l 2
 453.928 18.6885 433.906 -0.980469 409.234 -0.980469 c 0
 386.682 -0.980469 368.767 15.4521 365.828 36.8008 c 1
 332.191 13.1465 291.218 -0.746094 246.999 -0.746094 c 0
 132.746 -0.746094 40 92 40 206.254 c 0
 40 320.507 132.746 413.207 246.999 413.207 c 0
 291.206 413.207 332.149 399.294 365.781 375.66 c 1
 368.678 397.056 386.646 413.535 409.234 413.535 c 0
246.999 324.52 m 0
 181.713 324.52 128.734 271.541 128.734 206.254 c 0
 128.734 140.967 181.713 87.9883 246.999 87.9883 c 0
 312.287 87.9883 365.266 140.967 365.266 206.254 c 0
 365.266 271.54 312.287 324.52 246.999 324.52 c 0
EndSplineSet
Validated: 1
EndChar

StartChar: uni0000
Encoding: 0 0 1
Width: 687
VWidth: -610
Flags: W
HStem: -1 42<115.567 589.433> 751 42<115.567 589.433>
VStem: 60 41<54.6315 737.369> 603 42<54.567 737.433>
LayerCount: 2
Fore
SplineSet
158 793 m 2
 547 793 l 2
 601 793 645 749 645 695 c 2
 645 97 l 2
 645 43 601 -1 547 -1 c 2
 158 -1 l 2
 104 -1 60 43 60 97 c 2
 60 695 l 2
 60 749 104 793 158 793 c 2
547 751 m 2
 158 751 l 2
 127 751 101 726 101 695 c 2
 101 97 l 2
 101 66 127 41 158 41 c 2
 547 41 l 2
 578 41 603 66 603 97 c 2
 603 695 l 2
 603 726 578 751 547 751 c 2
EndSplineSet
Validated: 1
EndChar

StartChar: b
Encoding: 98 98 2
Width: 505
VWidth: -130
Flags: W
HStem: 0.953125 88.75<191.237 326.432> 326.234 88.6875<190.46 326.432>
VStem: 52 88.75<139.509 276.408 377.703 790.679> 377.281 88.6875<140.549 275.361>
LayerCount: 2
Fore
SplineSet
95.875 797.047 m 0
 120.546 797.047 140.598 777.393 140.625 753.078 c 2
 140.625 377.703 l 1
 174.185 401.154 215.013 414.922 259.031 414.922 c 0
 373.284 414.922 465.969 322.206 465.969 207.953 c 0
 465.968 93.7002 373.284 0.953125 259.031 0.953125 c 0
 214.812 0.953125 173.803 14.8594 140.156 38.5156 c 1
 137.097 17.166 118.429 0.734375 95.875 0.734375 c 0
 71.1875 0.734375 52 20.4287 52 44.7031 c 2
 52 753.078 l 2
 52 777.353 71.1875 797.047 95.875 797.047 c 0
259.031 326.234 m 0
 193.744 326.234 140.75 273.24 140.75 207.953 c 0
 140.75 142.666 193.744 89.7031 259.031 89.7031 c 0
 324.318 89.7031 377.281 142.667 377.281 207.953 c 0
 377.281 273.24 324.318 326.234 259.031 326.234 c 0
EndSplineSet
Validated: 1
EndChar

StartChar: c
Encoding: 99 99 3
Width: 449
VWidth: -535
Flags: W
HStem: -0.418945 88.7344<179.593 315.76> 324.847 88.6875<179.593 314.4>
VStem: 40 88.7344<139.174 273.985>
LayerCount: 2
Fore
SplineSet
330.615 122.966 m 0
 335.879 128.474 344.475 131.315 353.845 131.315 c 0
 364.684 131.315 376.558 127.513 385.505 119.64 c 0
 395.603 110.753 401.737 96.3562 401.737 83.0468 c 0
 401.737 74.373 399.132 66.1609 393.321 60.2363 c 0
 356.229 22.416 304.127 -0.418945 247 -0.418945 c 0
 132.747 -0.418945 40 92.3281 40 206.581 c 0
 40 320.834 132.747 413.534 247 413.534 c 0
 304.127 413.534 356.168 390.655 393.322 352.902 c 0
 400.676 345.43 403.413 336.683 403.413 328.188 c 0
 403.413 314.892 396.708 302.214 390.506 296.013 c 0
 383.623 289.131 368.445 281.365 353.635 281.365 c 0
 345.339 281.365 337.158 283.802 330.615 290.196 c 0
 308.968 311.354 279.644 324.847 247 324.847 c 0
 181.713 324.847 128.734 271.868 128.734 206.581 c 0
 128.734 141.294 181.713 88.3154 247 88.3154 c 0
 279.644 88.3154 309.712 101.09 330.615 122.966 c 0
EndSplineSet
Validated: 1
EndChar

StartChar: d
Encoding: 100 100 4
Width: 505
VWidth: -131
Flags: W
HStem: 0.953125 88.75<179.591 314.763> 326.234 88.6875<179.591 315.549>
VStem: 40 88.7188<140.549 275.361> 365.25 88.6875<139.509 276.408 377.734 790.679>
LayerCount: 2
Fore
SplineSet
409.219 797.047 m 0
 433.89 797.047 453.91 777.393 453.938 753.078 c 2
 453.938 44.6406 l 0
 453.91 20.3887 433.89 0.734375 409.219 0.734375 c 0
 386.68 0.734375 368.736 17.1553 365.781 38.4844 c 1
 332.153 14.8525 291.195 0.953125 247 0.953125 c 0
 132.747 0.953125 40 93.7002 40 207.953 c 0
 40 322.206 132.747 414.922 247 414.922 c 0
 291.003 414.922 331.799 401.17 365.344 377.734 c 1
 365.344 753.078 l 2
 365.344 777.353 384.531 797.047 409.219 797.047 c 0
247 326.234 m 0
 181.713 326.234 128.719 273.24 128.719 207.953 c 0
 128.719 142.666 181.713 89.7031 247 89.7031 c 0
 312.287 89.7031 365.25 142.667 365.25 207.953 c 0
 365.25 273.24 312.287 326.234 247 326.234 c 0
EndSplineSet
Validated: 1
EndChar

StartChar: e
Encoding: 101 101 5
Width: 495
VWidth: -131
Flags: W
HStem: -0.426758 88.75<179.596 315.003> 180.229 88.625<151.274 331.074> 324.854 88.6875<179.596 314.522>
VStem: 40 88.75<139.169 273.981>
LayerCount: 2
Fore
SplineSet
247 413.542 m 0
 389.553 413.542 453.156 283.152 453.156 224.948 c 0
 453.156 200.277 433.471 180.257 409.219 180.229 c 2
 188.812 180.229 l 2
 164.561 180.257 144.906 200.277 144.906 224.948 c 0
 144.906 249.636 164.601 268.854 188.875 268.854 c 2
 323.031 268.854 l 2
 336.083 268.854 340.426 281.148 330.625 290.198 c 0
 309.22 311.604 279.644 324.854 247 324.854 c 0
 181.713 324.854 128.75 271.86 128.75 206.573 c 0
 128.75 141.286 181.713 88.3232 247 88.3232 c 0
 288.176 88.3232 324.033 109.36 345.062 140.479 c 0
 348.01 144.841 360.657 153.898 376.218 153.898 c 0
 383.104 153.898 390.561 152.124 398 147.386 c 0
 416.737 135.45 422.971 119.713 422.971 107.16 c 0
 422.971 100.484 421.208 94.7091 418.625 90.8857 c 0
 381.821 36.4065 319.089 -0.426758 247 -0.426758 c 0
 132.747 -0.426758 40 92.3203 40 206.573 c 0
 40 320.826 132.747 413.542 247 413.542 c 0
EndSplineSet
Validated: 1
EndChar

StartChar: f
Encoding: 102 102 6
Width: 605
VWidth: -130
Flags: W
HStem: -2.03906 21G<184.156 208.835> 322.805 88.5938<52.3676 152.625 241.219 464.07> 708.305 88.6875<292.763 426.918>
VStem: 152.625 88.5938<4.3285 322.805 411.398 658.047> 477.906 88.6875<552.476 656.586>
LayerCount: 2
Fore
SplineSet
359.625 796.992 m 0
 461.561 796.992 565.903 717.837 566.594 590.023 c 0
 566.561 565.778 547.386 546.117 522.719 546.117 c 0
 498.059 546.117 478.044 565.785 477.906 590.023 c 0
 477.906 655.31 424.912 708.305 359.625 708.305 c 0
 294.338 708.305 241.219 655.311 241.219 590.023 c 2
 241.219 411.398 l 1
 426.469 411.398 l 2
 450.743 411.398 470.438 392.211 470.438 367.523 c 0
 470.438 342.853 450.752 322.831 426.469 322.805 c 2
 241.219 322.805 l 1
 241.219 41.8672 l 2
 241.191 17.6143 221.171 -2.03906 196.5 -2.03906 c 0
 171.812 -2.03906 152.625 17.6553 152.625 41.9297 c 2
 152.625 322.805 l 1
 89.9375 322.805 l 0
 65.6846 322.832 46 342.853 46 367.523 c 0
 46 392.211 65.6943 411.398 89.9688 411.398 c 2
 152.625 411.398 l 1
 152.625 598.805 l 2
 152.626 709.088 248.312 796.992 359.625 796.992 c 0
EndSplineSet
Validated: 1
EndChar

StartChar: g
Encoding: 103 103 7
Width: 505
VWidth: -130
Flags: W
HStem: -385.275 88.6875<178.966 313.844> -0.400391 88.75<179.59 315.559> 324.881 88.6875<179.59 314.782>
VStem: 40 88.7188<-243.348 -140.789 139.195 274.007> 365.375 88.5938<-246.136 36.8496 138.156 275.055>
LayerCount: 2
Fore
SplineSet
246.969 -385.275 m 0
 152.25 -385.275 42.1211 -316.264 40 -178.338 c 0
 40.0332 -154.093 59.208 -134.432 83.875 -134.432 c 0
 108.546 -134.432 128.566 -154.086 128.688 -178.338 c 0
 128.688 -243.625 181.682 -296.588 246.969 -296.588 c 0
 312.255 -296.588 365.344 -243.625 365.344 -178.338 c 0
 365.358 -176.869 365.359 -175.4 365.375 -173.932 c 2
 365.375 36.8496 l 1
 331.823 13.3896 291.018 -0.400391 247 -0.400391 c 0
 132.746 -0.400391 40 92.3467 40 206.6 c 0
 40 320.853 132.746 413.568 247 413.568 c 0
 291.22 413.568 332.205 399.685 365.844 376.037 c 1
 368.939 397.343 387.57 413.725 410.094 413.725 c 0
 434.781 413.725 453.969 394.03 453.969 369.756 c 2
 453.969 -187.119 l 2
 454.363 -296.805 358.281 -385.275 246.969 -385.275 c 0
247 324.881 m 0
 181.713 324.881 128.719 271.887 128.719 206.6 c 0
 128.719 141.312 181.713 88.3496 247 88.3496 c 0
 312.286 88.3496 365.25 141.313 365.25 206.6 c 0
 365.25 271.887 312.286 324.881 247 324.881 c 0
EndSplineSet
Validated: 33
EndChar

StartChar: h
Encoding: 104 104 8
Width: 517
VWidth: -132
Flags: W
HStem: -0.679688 21G<83.5308 108.21 408.875 433.554> 324.82 88.6875<190.413 326.312>
VStem: 52 88.5938<5.68788 274.994 376.32 789.265> 377.344 88.5938<5.68788 273.815>
LayerCount: 2
Fore
SplineSet
95.875 795.633 m 0
 120.546 795.633 140.566 775.979 140.594 751.664 c 2
 140.594 376.32 l 1
 174.146 399.757 214.968 413.508 258.969 413.508 c 0
 372.793 413.508 466.307 321.483 465.938 207.82 c 2
 465.938 43.2266 l 2
 465.91 18.9736 445.89 -0.679688 421.219 -0.679688 c 0
 396.53 -0.679688 377.344 19.0146 377.344 43.2891 c 2
 377.25 206.539 l 2
 377.25 271.825 324.255 324.82 258.969 324.82 c 0
 193.682 324.82 140.719 271.826 140.719 206.539 c 0
 140.719 205.859 140.594 43.2656 140.594 43.2266 c 0
 140.566 18.9736 120.546 -0.679688 95.875 -0.679688 c 0
 71.1865 -0.679688 52 19.0146 52 43.2891 c 2
 52 751.664 l 2
 52 775.938 71.1865 795.633 95.875 795.633 c 0
EndSplineSet
Validated: 33
EndChar

StartChar: i
Encoding: 105 105 9
Width: 328
VWidth: -335
Flags: W
HStem: -0.549805 88.5938<52.368 119.407 207.992 276.539> 325.356 88.5938<52.368 119.407> 486.356 116.812<94.743 201.632>
VStem: 46 236.906<5.94261 81.7983> 88.375 119.625<492.849 596.923> 119.407 88.585<88.044 325.352>
LayerCount: 2
Fore
SplineSet
132.344 603.169 m 2xe8
 164.031 603.169 l 2
 188.306 603.169 208 583.982 208 559.294 c 2
 208 531.075 l 2
 208 506.404 188.315 486.384 164.062 486.356 c 2
 132.312 486.356 l 2
 108.061 486.384 88.376 506.404 88.375 531.075 c 2
 88.375 559.294 l 2
 88.376 583.982 108.069 603.169 132.344 603.169 c 2xe8
89.9697 413.95 m 2
 165.594 413.919 l 2
 187.761 414.037 207.979 396.993 207.98 374.638 c 2
 207.992 98.4717 l 2xe4
 208.084 92.3438 210.473 88.1611 218.873 88.0439 c 2
 238.938 88.0439 l 2
 263.212 88.0439 282.906 68.8574 282.906 44.1689 c 0
 282.906 19.498 263.222 -0.522461 238.938 -0.549805 c 2
 89.9375 -0.549805 l 2
 65.6855 -0.522461 46.001 19.498 46 44.1689 c 0xf0
 46.001 68.8574 65.6943 88.0439 89.9697 88.0439 c 2
 109.638 88.0439 l 2
 115.723 88.0801 119.332 92.1816 119.407 97.6982 c 2
 119.407 316.524 l 2xe4
 119.29 320.795 115.55 325.33 111.103 325.356 c 2
 89.9375 325.356 l 2
 65.6855 325.384 46.001 345.404 46 370.075 c 0xf0
 46.001 394.764 65.6943 413.95 89.9697 413.95 c 2
EndSplineSet
Validated: 33
EndChar

StartChar: j
Encoding: 106 106 10
Width: 259
VWidth: -335
Flags: W
HStem: -384.857 88.6875<-65.5602 68.3905> 325.705 88.5938<52.2738 119.312> 486.705 116.812<94.6488 201.538>
VStem: -206 88.6875<-245.152 -140.371> 45.9062 161.969<332.197 408.053> 88.2812 119.625<493.197 597.272> 119.312 88.5938<-244.277 325.701>
LayerCount: 2
Fore
SplineSet
132.25 603.518 m 2xf4
 163.938 603.518 l 2
 188.211 603.518 207.906 584.331 207.906 559.643 c 2
 207.906 531.424 l 2
 207.905 506.753 188.221 486.732 163.969 486.705 c 2
 132.219 486.705 l 2
 107.966 486.732 88.2812 506.753 88.2812 531.424 c 2
 88.2812 559.643 l 2
 88.2812 584.331 107.976 603.518 132.25 603.518 c 2xf4
0.96875 -384.857 m 0
 -86.6295 -384.857 -203.783 -322.129 -206 -177.92 c 0
 -205.967 -153.675 -186.792 -134.014 -162.125 -134.014 c 0
 -137.454 -134.014 -117.434 -153.667 -117.312 -177.92 c 0
 -117.312 -243.206 -64.3184 -296.17 0.96875 -296.17 c 0
 66.2549 -296.17 119.344 -243.206 119.344 -177.92 c 0
 119.344 -176.639 119.322 -175.357 119.312 -174.076 c 2
 119.312 316.861 l 2xf2
 119.195 321.132 115.447 325.679 111 325.705 c 2
 89.8438 325.705 l 2
 65.5908 325.732 45.9062 345.753 45.9062 370.424 c 0
 45.9062 395.112 65.6006 414.299 89.875 414.299 c 2
 165.5 414.268 l 2
 187.666 414.386 207.874 397.342 207.875 374.986 c 2xf8
 207.906 -173.326 l 2
 207.906 -174.857 207.906 -176.389 207.906 -177.92 c 0xf2
 207.906 -292.173 115.222 -384.857 0.96875 -384.857 c 0
EndSplineSet
Validated: 33
EndChar

StartChar: k
Encoding: 107 107 11
Width: 515
VWidth: -82
Flags: W
HStem: 0.84375 21G<83.5312 108.21>
VStem: 52 88.625<7.21131 207.367 405.214 790.789>
LayerCount: 2
Fore
SplineSet
95.875 797.156 m 0
 120.546 797.156 140.598 777.502 140.625 753.188 c 2
 140.625 405.214 l 2
 140.625 396.873 151.592 407.676 151.592 407.676 c 2
 316.094 555.156 l 2
 324.55 562.737 335.064 566.523 345.548 566.523 c 0
 357.472 566.523 369.355 561.625 378.125 551.844 c 0
 385.869 543.206 389.689 532.429 389.689 521.749 c 0
 389.689 509.716 384.839 497.807 375.281 489.219 c 0
 307.38 428.352 239.479 367.484 171.577 306.617 c 0
 169.249 304.526 170.194 302.269 172.521 300.445 c 2
 452.656 80.9688 l 2
 463.762 72.2676 469.656 59.418 469.656 46.3662 c 0
 469.656 36.9609 466.596 27.4512 460.219 19.3125 c 0
 451.317 7.95117 438.097 1.99023 424.832 1.99023 c 0
 415.423 1.99023 405.991 4.98926 398.062 11.1875 c 2
 146.156 208.572 l 2
 143.5 210.705 140.625 210.214 140.625 207.367 c 2
 140.625 44.75 l 2
 140.625 20.498 120.546 0.84375 95.875 0.84375 c 0
 71.1875 0.84375 52 20.5381 52 44.8125 c 2
 52 753.188 l 2
 52 777.462 71.1875 797.156 95.875 797.156 c 0
EndSplineSet
Validated: 1
EndChar

StartChar: l
Encoding: 108 108 12
Width: 346
VWidth: -79
Flags: W
HStem: -2.74023 88.9688<221.276 293.789> 708.975 88.9375<52.3676 124.881>
VStem: 128.781 88.5938<89.5526 705.619>
LayerCount: 2
Fore
SplineSet
128.781 667.197 m 2
 128.42 700.328 106.172 708.937 94.5312 708.975 c 2
 89.9688 708.975 l 2
 65.6943 708.975 46 728.162 46 752.85 c 0
 46 777.521 65.6543 797.885 89.9062 797.912 c 2
 90.0625 797.912 l 2
 160.275 797.912 217.375 741.031 217.375 670.818 c 2
 217.375 124.416 l 2
 217.375 104.743 232.941 86.4033 251.375 86.2285 c 2
 256.188 86.2285 l 2
 280.462 86.2285 300.156 67.041 300.156 42.3535 c 0
 300.156 17.6816 280.502 -2.71387 256.25 -2.74023 c 2
 256.094 -2.74023 l 2
 185.881 -2.74023 128.781 54.1406 128.781 124.354 c 2
 128.781 667.197 l 2
EndSplineSet
Validated: 1
EndChar

StartChar: m
Encoding: 109 109 13
Width: 695
VWidth: -285
Flags: W
HStem: 0.72168 21G<83.5312 108.21 335.531 360.21 586.531 611.21> 326.065 87.6875<164.614 278.03 415.256 531.323>
VStem: 52 88.5938<7.08924 301.795> 304 88.5938<7.08924 300.369> 555 88.5938<7.08924 302.682>
LayerCount: 2
Fore
SplineSet
95.875 415.222 m 0
 113.492 415.222 128.743 405.194 136.031 390.628 c 1
 161.188 405.321 190.446 413.753 221.656 413.753 c 0
 271.56 413.753 316.44 392.184 347.562 357.909 c 1
 378.695 392.204 423.609 413.753 473.531 413.753 c 0
 565.625 413.753 645.279 352.764 643.531 249.003 c 0
 643.532 248.982 643.594 44.6279 643.594 44.6279 c 0
 643.566 20.375 623.546 0.72168 598.875 0.72168 c 0
 574.188 0.72168 555 20.416 555 44.6904 c 2
 555.031 256.034 l 2
 555.062 296.723 514.816 326.065 473.531 326.065 c 0
 433.389 326.065 391.434 296.242 392.594 259.284 c 1
 392.594 44.6279 l 0
 392.566 20.375 372.546 0.72168 347.875 0.72168 c 0
 323.188 0.72168 304 20.416 304 44.6904 c 2
 303.625 252.159 l 2
 303.948 292.592 264.271 326.065 221.656 326.065 c 0
 181.303 326.065 140.608 293.472 140.594 258.69 c 2
 140.594 44.6279 l 0
 140.566 20.376 120.546 0.72168 95.875 0.72168 c 0
 71.1875 0.72168 52 20.416 52 44.6904 c 2
 52 371.253 l 2
 52 395.527 71.1875 415.222 95.875 415.222 c 0
EndSplineSet
Validated: 33
EndChar

StartChar: n
Encoding: 110 110 14
Width: 517
VWidth: -79
Flags: W
HStem: -0.692383 21G<83.5308 108.21 408.844 433.523> 324.808 88.6875<192.365 325.64>
VStem: 52 88.5897<5.67518 272.322> 377.312 88.5938<5.67518 274.084>
LayerCount: 2
Fore
SplineSet
95.875 413.808 m 0
 118.432 413.808 137.102 397.381 140.156 376.026 c 1
 173.781 399.626 214.704 413.495 258.875 413.495 c 0
 369.705 413.495 466.268 322.26 465.594 216.745 c 0
 465.791 215.076 465.906 43.2217 465.906 43.2139 c 0
 465.879 18.9609 445.858 -0.692383 421.188 -0.692383 c 0
 396.5 -0.692383 377.312 19.002 377.312 43.2764 c 2
 377.156 206.526 l 2
 377.156 271.812 324.162 324.808 258.875 324.808 c 0
 193.588 324.808 141.104 271.085 140.625 206.526 c 0
 140.596 202.607 140.59 152.232 140.59 108.455 c 0
 140.59 73.7634 140.594 43.2156 140.594 43.2139 c 0
 140.566 18.9609 120.546 -0.692383 95.875 -0.692383 c 0
 71.1865 -0.692383 52 19.002 52 43.2764 c 2
 52 369.839 l 2
 52 394.113 71.1865 413.808 95.875 413.808 c 0
EndSplineSet
Validated: 33
EndChar

StartChar: o
Encoding: 111 111 15
Width: 493
VWidth: -82
Flags: W
HStem: 0.995117 88.7344<179.593 314.404> 326.261 88.6875<179.593 314.404>
VStem: 40 88.7334<140.589 275.399> 365.266 88.6885<140.589 275.399>
LayerCount: 2
Fore
SplineSet
247 414.948 m 0
 361.253 414.948 453.954 322.248 453.954 207.995 c 0
 453.953 93.7422 361.253 0.995117 247 0.995117 c 0
 132.746 0.995117 40 93.7422 40 207.995 c 0
 40 322.248 132.746 414.948 247 414.948 c 0
247 326.261 m 0
 181.713 326.261 128.733 273.282 128.733 207.995 c 0
 128.733 142.709 181.713 89.7295 247 89.7295 c 0
 312.287 89.7295 365.266 142.709 365.266 207.995 c 0
 365.266 273.282 312.287 326.261 247 326.261 c 0
EndSplineSet
Validated: 1
EndChar

StartChar: p
Encoding: 112 112 16
Width: 505
VWidth: -80
Flags: W
HStem: 0.177734 88.75<190.976 326.189> 325.459 88.6875<191.677 326.189>
VStem: 52 88.625<-379.33 37.2715 138.901 275.501> 377.062 88.6875<139.773 274.586>
LayerCount: 2
Fore
SplineSet
258.781 414.146 m 0
 373.034 414.146 465.75 321.431 465.75 207.178 c 0
 465.749 92.9238 373.034 0.177734 258.781 0.177734 c 0
 214.859 0.177734 174.144 13.9053 140.625 37.2715 c 1
 140.625 -341.76 l 2
 140.598 -366.012 120.546 -385.697 95.875 -385.697 c 0
 71.1875 -385.697 52 -366.003 52 -341.729 c 2
 52 368.803 l 2
 52 393.077 71.1865 412.771 95.875 412.771 c 0
 117.854 412.771 136.158 397.139 139.906 376.584 c 1
 173.56 400.247 214.546 414.146 258.781 414.146 c 0
258.781 325.459 m 0
 195.029 325.459 143.036 274.936 140.625 211.771 c 1
 140.625 202.646 l 1
 143.021 139.468 195.02 88.9277 258.781 88.9277 c 0
 324.068 88.9277 377.062 141.891 377.062 207.178 c 0
 377.062 272.465 324.068 325.459 258.781 325.459 c 0
EndSplineSet
Validated: 1
EndChar

StartChar: q
Encoding: 113 113 17
Width: 504
VWidth: -79
Flags: W
HStem: -383.783 88.7031<506.573 615.976> 1.0918 88.75<179.561 314.775> 326.373 88.6875<179.561 314.073>
VStem: 40 88.6875<140.688 275.5> 365.125 88.625<-242.44 38.1855 139.815 276.415>
LayerCount: 2
Fore
SplineSet
572.125 -383.783 m 2
 459.805 -383.783 365.761 -293.711 365.219 -182.627 c 0
 365.211 -180.887 365.178 -179.147 365.125 -177.408 c 2
 365.125 38.1855 l 1
 331.607 14.8193 290.892 1.0918 246.969 1.0918 c 0
 132.716 1.0918 40.001 93.8389 40 208.092 c 0
 40 322.345 132.716 415.061 246.969 415.061 c 0
 291.205 415.061 332.19 401.161 365.844 377.498 c 1
 369.593 398.053 387.896 413.686 409.875 413.686 c 0
 434.563 413.686 453.75 393.991 453.75 369.717 c 2
 453.75 -177.377 l 2
 454.037 -242.42 507.016 -295.096 572.141 -295.08 c 2
 578.375 -295.064 l 2
 602.649 -295.064 622.344 -314.252 622.344 -338.939 c 0
 622.344 -363.61 602.659 -383.756 578.406 -383.783 c 2
 572.125 -383.783 l 2
246.969 326.373 m 0
 181.682 326.373 128.688 273.379 128.688 208.092 c 0
 128.688 142.806 181.682 89.8418 246.969 89.8418 c 0
 310.731 89.8418 362.729 140.382 365.125 203.561 c 1
 365.125 212.686 l 1
 362.714 275.85 310.721 326.373 246.969 326.373 c 0
EndSplineSet
Validated: 33
EndChar

StartChar: r
Encoding: 114 114 18
Width: 482
VWidth: -79
Flags: W
HStem: -2.10645 21G<83.5303 108.21> 323.394 88.6875<192.365 325.578>
VStem: 52 88.5893<4.26112 270.908>
LayerCount: 2
Fore
SplineSet
95.874 412.394 m 0
 118.432 412.394 137.102 395.967 140.156 374.612 c 1
 173.781 398.211 214.704 412.081 258.874 412.081 c 0
 361.484 412.081 421.014 337.389 429.891 323.683 c 0
 434.604 316.411 436.857 308.229 436.857 300.104 c 0
 436.857 285.635 429.713 271.343 416.594 262.675 c 0
 407.608 256.738 399.279 254.382 391.69 254.382 c 0
 364.717 254.382 347.087 284.149 342.499 288.737 c 0
 321.09 310.146 291.518 323.394 258.874 323.394 c 0
 193.588 323.394 141.103 269.671 140.624 205.112 c 0
 140.596 201.274 140.589 152.876 140.589 109.757 c 0
 140.589 73.9596 140.594 41.8016 140.594 41.7998 c 0
 140.566 17.5469 120.546 -2.10645 95.874 -2.10645 c 0
 71.1865 -2.10645 51.999 17.5879 52 41.8623 c 2
 52 368.425 l 2
 52 392.699 71.1865 412.394 95.874 412.394 c 0
EndSplineSet
Validated: 33
EndChar

StartChar: s
Encoding: 115 115 19
Width: 431
VWidth: -284
Flags: W
HStem: -0.364258 88.5938<145.907 289.293> 162.261 88.5938<142.321 289.23> 324.917 88.5625<142.095 286.649>
VStem: 46 88.9062<262.787 312.984> 296.5 88.875<100.162 150.319>
LayerCount: 2
Fore
SplineSet
215.688 -0.364258 m 0
 153.125 -0.364258 87.9816 26.3648 59.2812 76.4951 c 0
 54.6413 84.5997 52.1289 93.886 52.1289 103.017 c 0
 52.1289 116.365 57.4977 129.38 69.4375 137.886 c 0
 77.4017 143.559 86.5639 146.29 95.6007 146.29 c 0
 109.364 146.29 122.837 139.956 131.375 128.042 c 0
 143.695 110.755 154.021 88.2295 215.688 88.2295 c 0
 260.288 88.2295 296.5 104.822 296.5 125.261 c 0
 296.5 145.632 260.306 162.152 215.906 162.261 c 0
 122.245 162.261 46 218.554 46 287.886 c 0
 46 357.218 122.026 413.479 215.688 413.479 c 0
 273.303 413.479 337.447 390.271 368.672 342.292 c 1
 374.243 334.471 376.957 325.49 376.957 316.603 c 0
 376.957 303.025 370.622 289.669 358.469 281.011 c 0
 350.505 275.337 341.343 272.607 332.306 272.607 c 0
 318.543 272.607 305.07 278.94 296.562 290.854 c 0
 286.206 305.41 272.163 324.917 215.688 324.917 c 0
 171.091 324.917 134.906 308.324 134.906 287.886 c 0
 134.906 267.447 171.091 250.854 215.688 250.854 c 0
 309.349 250.854 385.375 194.593 385.375 125.261 c 0
 385.375 55.9287 309.349 -0.364258 215.688 -0.364258 c 0
EndSplineSet
Validated: 1
EndChar

StartChar: t
Encoding: 116 116 20
Width: 506
VWidth: -80
Flags: W
HStem: -1.68164 88.7166<345.04 454.507> 396.881 88.5938<52.3676 203.656 292.281 454.132>
VStem: 203.656 88.625<139.661 396.881 485.475 617.732>
LayerCount: 2
Fore
SplineSet
292.281 205.037 m 2
 292.508 153.657 329.633 87.035 416.062 87.035 c 0
 416.343 87.035 416.624 87.0357 416.906 87.0371 c 0
 441.181 87.0371 460.875 67.8506 460.875 43.1621 c 0
 460.875 18.4912 441.19 -1.6543 416.938 -1.68164 c 2
 410.656 -1.68164 l 2
 298.336 -1.68164 203.656 88.3896 203.656 199.475 c 2
 203.656 396.881 l 1
 89.9062 396.881 l 2
 65.6543 396.908 46 416.929 46 441.6 c 0
 46 466.288 65.6943 485.475 89.9688 485.475 c 2
 203.688 485.475 l 1
 203.688 580.131 l 2
 203.688 604.405 222.875 624.1 247.562 624.1 c 0
 273.524 624.1 292.022 603.559 292.272 580.287 c 2
 292.281 485.475 l 1
 416.531 485.475 l 2
 440.806 485.475 460.5 466.288 460.5 441.6 c 0
 460.5 416.929 440.847 396.908 416.594 396.881 c 2
 292.281 396.881 l 1
 292.281 205.037 l 2
EndSplineSet
Validated: 1
EndChar

StartChar: u
Encoding: 117 117 21
Width: 517
VWidth: -80
Flags: W
HStem: 0.72168 21G<410.753 434.375> 1.03418 88.6875<192.266 325.541> 395.222 20G<84.3833 109.063 409.696 434.375>
VStem: 52 88.5938<140.445 408.854> 377.281 88.625<142.208 408.854>
LayerCount: 2
Fore
SplineSet
422.031 0.72168 m 0xb8
 399.475 0.72168 380.805 17.1484 377.75 38.5029 c 1
 344.125 14.9043 303.202 1.03418 259.031 1.03418 c 0
 148.201 1.03418 51.6396 92.2695 52.3125 197.784 c 0
 52.1152 199.453 52 371.308 52 371.315 c 0
 52.0273 395.568 72.0479 415.222 96.7188 415.222 c 0
 121.407 415.222 140.594 395.527 140.594 371.253 c 2
 140.75 208.003 l 2
 140.75 142.717 193.744 89.7217 259.031 89.7217 c 0x78
 324.318 89.7217 376.803 143.444 377.281 208.003 c 0
 377.311 211.922 377.316 262.297 377.316 306.074 c 0
 377.312 371.315 l 0
 377.34 395.568 397.36 415.222 422.031 415.222 c 0
 446.72 415.222 465.906 395.527 465.906 371.253 c 2
 465.906 44.6904 l 2
 465.906 20.416 446.72 0.72168 422.031 0.72168 c 0xb8
EndSplineSet
Validated: 33
EndChar

StartChar: v
Encoding: 118 118 22
Width: 612
VWidth: -285
Flags: W
HStem: 0.0244141 88.6875<271.77 340.072> 395.919 19.9941G<90.3647 98.6362 514.222 525.733>
LayerCount: 2
Fore
SplineSet
306.513 88.7119 m 0
 315.124 88.7119 330.542 91.3936 340.793 109.79 c 2
 482.949 391.962 l 2
 490.636 407.175 506.132 415.919 522.312 415.919 c 0
 529.154 415.919 536.119 414.355 542.668 411.056 c 0
 558.17 403.245 566.866 387.966 566.866 372.047 c 0
 566.866 365.326 565.316 358.491 562.074 352.056 c 2
 414.199 59.4619 l 1
 391.704 23.752 351.913 0.0244141 306.574 0.0244141 c 0
 254.752 0.0244141 212.042 28.0635 190.824 74.1807 c 1
 50.793 352.056 l 2
 47.5195 358.552 46 365.354 46 371.996 c 0
 46 394.553 63.5293 415.267 89.4492 415.899 c 0
 89.8154 415.908 90.1816 415.913 90.5479 415.913 c 0
 106.725 415.913 122.231 407.177 129.918 391.962 c 2
 270.707 112.509 l 2
 277.847 98.3389 289.781 88.7119 306.513 88.7119 c 0
EndSplineSet
Validated: 1
EndChar

StartChar: w
Encoding: 119 119 23
Width: 702
VWidth: -285
Flags: W
HStem: -0.24707 88.75<183.016 292.841 409.827 519.079> 396.19 20G<83.5312 108.21 593.883 618.563>
VStem: 52 88.5938<131.028 409.823> 306.75 88.5871<103.146 231.823> 561.469 88.625<131.028 409.823>
LayerCount: 2
Fore
SplineSet
351.063 43.2529 m 1
 329.579 21.9518 293.505 -0.24707 245.219 -0.24707 c 0
 138.577 -0.24707 52 86.3301 52 192.972 c 2
 52 372.222 l 2
 52 396.496 71.1875 416.19 95.875 416.19 c 0
 120.546 416.19 140.567 396.537 140.594 372.284 c 2
 140.594 202.597 l 2
 140.635 199.378 140.781 196.16 140.781 192.94 c 0
 140.782 135.294 187.588 88.5029 245.235 88.5029 c 0
 278.093 88.5029 306.7 113.203 306.656 146.69 c 0
 306.656 151.444 306.75 156.197 306.75 194.222 c 0
 306.75 218.496 325.938 238.19 350.625 238.19 c 0
 375.296 238.19 395.317 218.537 395.344 194.284 c 0
 395.344 177.663 395.337 168.207 395.337 162.304 c 0
 395.337 152.993 395.354 152.514 395.438 146.69 c 0
 395.913 114.014 424.002 88.5029 456.86 88.5029 c 0
 514.506 88.5029 561.313 135.294 561.313 192.94 c 0
 561.313 196.16 561.478 199.378 561.469 202.597 c 2
 561.469 372.284 l 2
 561.496 396.537 581.548 416.19 606.219 416.19 c 0
 630.907 416.19 650.094 396.496 650.094 372.222 c 2
 650.094 192.972 l 2
 650.094 86.3301 563.518 -0.24707 456.875 -0.24707 c 0
 408.527 -0.24707 372.579 21.9267 351.063 43.2529 c 1
EndSplineSet
Validated: 33
EndChar

StartChar: x
Encoding: 120 120 24
Width: 509
VWidth: -285
Flags: W
HStem: -0.832031 21G<85.063 96.3994 413.203 424.547> 396.771 20G<84.6538 95.8589 413.757 424.953>
LayerCount: 2
Fore
SplineSet
59.248 403.823 m 0
 67.9062 412.48 79.0742 416.771 90.2334 416.771 c 0
 101.484 416.771 112.726 412.409 121.373 403.761 c 2
 246.472 278.663 l 2
 250.402 274.731 259.22 274.731 263.15 278.663 c 2
 388.248 403.761 l 2
 396.882 412.395 408.125 416.775 419.389 416.775 c 0
 430.518 416.775 441.667 412.499 450.343 403.823 c 0
 459.167 394.999 463.591 383.454 463.591 371.978 c 0
 463.591 360.766 459.369 349.619 450.904 341.136 c 2
 324.817 215.049 l 2
 321.116 211.348 322.086 203.077 325.787 199.376 c 2
 450.593 74.542 l 2
 459.227 65.9082 463.606 54.6582 463.606 43.3867 c 0
 463.606 32.25 459.33 21.0928 450.654 12.417 c 0
 441.83 3.5918 430.285 -0.832031 418.809 -0.832031 c 0
 407.598 -0.832031 396.451 3.38965 387.968 11.8545 c 2
 262.112 137.679 l 2
 258.655 141.135 250.904 141.136 247.448 137.68 c 2
 121.623 11.8545 l 2
 113.14 3.38965 102.001 -0.832031 90.7979 -0.832031 c 0
 79.3281 -0.832031 67.792 3.5918 58.9678 12.417 c 0
 50.292 21.0928 46.0156 32.251 46.0156 43.3867 c 0
 46.0156 54.6582 50.3955 65.9082 59.0293 74.542 c 2
 183.834 199.347 l 2
 187.535 203.048 188.503 211.318 184.803 215.02 c 2
 58.6865 341.136 l 2
 50.2217 349.619 46 360.766 46 371.977 c 0
 46 383.454 50.4238 394.998 59.248 403.823 c 0
EndSplineSet
Validated: 1
EndChar

StartChar: y
Encoding: 121 121 25
Width: 517
VWidth: -78
Flags: W
HStem: -383.939 88.6875<191.281 325.845> 1.0293 88.6875<192.329 326.015> 395.217 20G<84.4458 109.125 409.759 434.438>
VStem: 52.0625 88.5938<-242.524 -139.453 140.441 408.849> 377.375 88.5947<-244.8 38.498 142.203 408.849>
LayerCount: 2
Fore
SplineSet
377.812 38.498 m 1
 339.28 10.9746 294.744 1.0293 259.095 1.0293 c 0
 148.265 1.0293 51.7021 92.2646 52.375 197.779 c 0
 52.1777 199.449 52.0625 371.303 52.0625 371.311 c 0
 52.0889 395.563 72.1104 415.217 96.7812 415.217 c 0
 121.47 415.217 140.656 395.522 140.656 371.248 c 2
 140.812 207.998 l 2
 140.813 142.711 193.808 89.7168 259.095 89.7168 c 0
 324.381 89.7168 376.866 143.439 377.345 207.998 c 0
 377.373 211.836 377.379 260.234 377.379 303.353 c 0
 377.375 371.311 l 0
 377.402 395.563 397.423 415.217 422.095 415.217 c 0
 446.782 415.217 465.97 395.522 465.97 371.248 c 2
 465.97 -185.783 l 2
 466.364 -295.468 370.281 -383.939 258.97 -383.939 c 0
 165.745 -383.939 54.2123 -316.375 52 -177.002 c 0
 52.0332 -152.757 71.208 -133.096 95.875 -133.096 c 0
 120.546 -133.096 140.567 -152.75 140.688 -177.002 c 0
 140.688 -242.288 193.683 -295.252 258.97 -295.252 c 0
 324.256 -295.252 377.345 -242.289 377.345 -177.002 c 0
 377.359 -175.533 377.36 -174.064 377.375 -172.596 c 2
 377.812 38.498 l 1
EndSplineSet
Validated: 33
EndChar

StartChar: z
Encoding: 122 122 26
Width: 507
VWidth: -79
Flags: MW
HStem: -0.254883 88.625<197.344 455.039> 167 88.625 324.745 88.625<52.3676 309.562>
LayerCount: 2
Fore
SplineSet
89.9688 413.37 m 2
 417.438 413.37 l 2
 441.712 413.37 461.406 394.152 461.406 369.464 c 0
 461.406 344.938 442.583 331.994 439.156 328.589 c 2
 357.219 247.183 l 1
 367.818 239.256 374.688 226.617 374.688 212.058 c 0
 374.688 187.387 355.003 167.334 330.719 167.308 c 2
 276.812 167.308 l 1
 197.344 88.3701 l 1
 417.438 88.3701 l 2
 441.712 88.3701 461.406 69.1523 461.406 44.4639 c 0
 461.406 19.793 441.722 -0.227539 417.438 -0.254883 c 2
 89.9062 -0.254883 l 0
 65.6543 -0.227539 46 19.793 46 44.4639 c 0
 46 56.7109 50.8389 67.626 58.6875 75.4951 c 2
 154.281 170.464 l 1
 138.01 177.023 126.469 193.182 126.469 212.058 c 0
 126.469 236.746 146.163 255.933 170.438 255.933 c 2
 240.281 255.933 l 1
 309.562 324.745 l 1
 89.9062 324.745 l 0
 65.6543 324.772 46 344.793 46 369.464 c 0
 46 394.151 65.6943 413.37 89.9688 413.37 c 2
EndSplineSet
Validated: 1
EndChar

StartChar: A
Encoding: 65 65 28
Width: 695
VWidth: -80
Flags: W
HStem: 0.75 21G<83.5308 108.21 586.593 611.273> 325.594 88.5938<141 554.656> 708.312 88.7188<274.068 421.614>
VStem: 52 88.5938<7.11756 325.594 414.188 534.92> 555.062 88.5938<7.11756 325.594 414.188 534.931>
LayerCount: 2
Fore
SplineSet
52 397.75 m 2
 52 617.977 184.544 797.031 347.844 797.031 c 0
 511.133 797.031 643.656 618.004 643.656 397.75 c 2
 643.656 44.6875 l 2
 643.629 20.4355 623.608 0.75 598.938 0.75 c 0
 574.249 0.75 555.062 20.4443 555.062 44.7188 c 2
 555.062 325.594 l 1
 140.594 325.594 l 1
 140.594 44.6875 l 2
 140.566 20.4355 120.546 0.75 95.875 0.75 c 0
 71.1865 0.75 52 20.4443 52 44.7188 c 2
 52 397.75 l 2
347.844 708.312 m 0
 237.196 708.312 146.71 578.006 141 414.188 c 1
 554.656 414.188 l 1
 548.947 578.006 458.489 708.312 347.844 708.312 c 0
EndSplineSet
Validated: 1
EndChar

StartChar: B
Encoding: 66 66 29
Width: 683
VWidth: -81
Flags: W
HStem: -1.82031 88.5938<144.646 501.68> 323.461 88.5938<140.595 353.407> 708.18 88.5938<145.069 430.956>
VStem: 52.001 88.5938<92.8646 323.461 412.055 701.977> 482.251 88.6875<522.548 657.157> 554.782 88.6875<138.821 273.189>
LayerCount: 2
Fore
SplineSet
52.001 669.461 m 2xf4
 52.1816 751.882 117.863 796.609 174.845 796.773 c 2
 364.845 796.773 l 2
 478.695 796.301 570.938 703.797 570.938 589.836 c 0xf8
 570.938 500.811 516.103 449.06 508.126 441.461 c 2
 475.157 408.523 l 1
 570.955 390.409 643.47 306.226 643.47 205.18 c 0
 643.469 92.5234 553.684 -1.75195 441.282 -1.82031 c 2
 179.313 -1.82031 l 2
 109.325 -1.82031 51.751 54.6641 52.001 124.43 c 2
 52.001 669.461 l 2xf4
179.251 708.18 m 2
 161.099 708.17 140.874 694.346 140.595 668.148 c 2
 140.595 412.055 l 1
 353.407 412.055 l 1
 447.595 506.211 l 2
 469.001 527.616 482.251 557.192 482.251 589.836 c 0
 482.251 655.123 429.257 708.085 363.97 708.086 c 0
 362.782 708.086 361.595 708.086 360.407 708.086 c 0
 306.427 708.101 180.47 708.18 180.47 708.18 c 1
 179.251 708.18 l 2
434.501 86.7734 m 2
 505.973 87.5059 554.782 142.915 554.782 205.18 c 0xf4
 554.782 270.466 501.788 323.205 436.501 323.457 c 2
 435.501 323.461 l 1
 140.595 323.461 l 1
 140.595 125.336 l 2
 140.698 107.082 154.439 86.9609 180.47 86.7734 c 2
 434.501 86.7734 l 2
EndSplineSet
Validated: 33
EndChar

StartChar: C
Encoding: 67 67 30
Width: 600
VWidth: -83
Flags: W
HStem: -1.82031 88.7188<260.931 411.162> 708.055 88.7188<260.931 410.388>
VStem: 40 88.6875<261.554 533.426>
LayerCount: 2
Fore
SplineSet
335.844 796.773 m 0
 440.409 796.773 518.396 721.5 547.219 676.523 c 0
 551.863 669.276 554.08 661.127 554.08 653.035 c 0
 554.08 638.527 546.952 624.207 533.906 615.617 c 0
 526.757 610.91 519.066 608.744 511.463 608.744 c 0
 497.459 608.744 483.749 616.089 474.25 628.43 c 2
 467.562 637.117 l 1
 415.535 701.501 360.463 708.055 335.844 708.055 c 0
 221.519 708.055 128.688 568.95 128.688 397.492 c 0
 128.688 226.034 221.519 86.8984 335.844 86.8984 c 0
 391.763 86.8984 437.423 117.785 474.219 166.68 c 0
 484.691 180.594 497.598 186.339 509.957 186.339 c 0
 532.969 186.339 554.087 166.426 554.087 142.243 c 0
 554.087 133.532 551.347 124.268 544.969 115.18 c 0
 493.326 41.5361 417.486 -1.82031 335.844 -1.82031 c 0
 172.557 -1.82031 40 177.061 40 397.492 c 0
 40 617.923 172.558 796.773 335.844 796.773 c 0
EndSplineSet
Validated: 1
EndChar

StartChar: D
Encoding: 68 68 31
Width: 582
VWidth: -80
Flags: W
HStem: -1.82031 88.5938<144.935 320.431> 708.18 88.5938<145.926 318.056>
VStem: 52 88.625<90.6634 704.351> 453.656 88.6875<261.554 532.888>
LayerCount: 2
Fore
SplineSet
179.312 796.773 m 2
 252.25 796.773 l 2
 413.403 796.911 542.344 615.347 542.344 397.492 c 0
 542.344 177.061 409.817 -1.82031 246.531 -1.82031 c 0
 244.968 -1.82031 243.456 -1.79102 241.969 -1.72656 c 0
 241.058 -1.78516 240.146 -1.81934 239.156 -1.82031 c 2
 179.312 -1.82031 l 2
 110.334 -1.82031 52.0518 53.0527 52 121.586 c 2
 52 681.43 l 2
 52.0518 744.048 113.137 796.773 179.312 796.773 c 2
140.625 126.586 m 2
 140.845 110.431 149.343 86.6338 183.562 86.7734 c 2
 239.156 86.7734 l 2
 240.042 86.7734 240.909 86.7295 241.781 86.6797 c 0
 243.342 86.8174 244.917 86.8984 246.531 86.8984 c 0
 360.856 86.8984 453.656 226.034 453.656 397.492 c 0
 453.656 568.95 360.855 707.695 246.531 708.165 c 2
 243 708.18 l 1
 179.25 708.18 l 2
 157.999 708.18 140.559 690.774 140.625 669.523 c 2
 140.625 126.586 l 2
EndSplineSet
Validated: 33
EndChar

StartChar: E
Encoding: 69 69 32
Width: 533
VWidth: -280
Flags: W
HStem: -0.40625 88.5625<144.936 480.914> 326.75 88.5938<140.626 372.133> 709.594 88.5938<145.926 480.977>
VStem: 52 88.626<92.0331 326.75 415.344 705.708>
LayerCount: 2
Fore
SplineSet
179.313 798.188 m 2
 443.376 798.188 l 2
 467.649 798.188 487.345 779 487.345 754.312 c 0
 487.344 729.642 467.659 709.621 443.407 709.594 c 2
 179.251 709.594 l 2
 157.672 709.594 140.036 692.013 140.626 669.719 c 2
 140.626 415.344 l 1
 334.531 415.344 l 2
 358.806 415.344 378.501 396.156 378.501 371.469 c 0
 378.5 346.798 358.847 326.777 334.531 326.75 c 2
 140.626 326.75 l 1
 140.626 128 l 2
 140.927 101.4 161.456 88.0869 179.251 88.1562 c 0
 180.688 88.1621 443.313 88.1875 443.313 88.1875 c 2
 467.587 88.1875 487.282 69.001 487.282 44.3125 c 0
 487.281 19.6416 467.628 -0.378906 443.345 -0.40625 c 2
 179.313 -0.40625 l 2
 110.335 -0.40625 52.0518 54.4678 52 123 c 2
 52 682.844 l 2
 52.0518 745.462 113.137 798.188 179.313 798.188 c 2
EndSplineSet
Validated: 33
EndChar

StartChar: F
Encoding: 70 70 33
Width: 533
VWidth: -80
Flags: W
HStem: 323.875 88.5938<140.625 372.132> 706.719 88.5938<145.926 480.976>
VStem: 52 88.625<3.18006 323.875 412.469 702.833>
LayerCount: 2
Fore
SplineSet
179.312 795.312 m 2
 443.375 795.312 l 2
 467.649 795.312 487.344 776.125 487.344 751.438 c 0
 487.344 726.767 467.659 706.745 443.406 706.719 c 2
 179.25 706.719 l 2
 157.671 706.719 140.054 689.141 140.625 666.844 c 2
 140.625 412.469 l 1
 334.531 412.469 l 2
 358.806 412.469 378.5 393.281 378.5 368.594 c 0
 378.5 343.922 358.847 323.901 334.531 323.875 c 2
 140.625 323.875 l 1
 140.625 40.75 l 2
 140.599 16.4971 120.577 -3.1875 95.9062 -3.1875 c 0
 71.2188 -3.1875 52 16.5068 52 40.7812 c 2
 52 679.969 l 2
 52.0518 742.586 113.137 795.312 179.312 795.312 c 2
EndSplineSet
Validated: 33
EndChar

StartChar: G
Encoding: 71 71 34
Width: 656
VWidth: -82
Flags: W
HStem: -1.82031 88.7188<260.931 410.451> 325.336 88.5938<209.368 521.331> 708.055 88.7188<260.931 411.838>
VStem: 40 88.6875<261.554 533.426> 528 88.1875<222.117 321.486>
LayerCount: 2
Fore
SplineSet
616.188 286.648 m 0
 616.188 216.863 520.722 -1.82031 335.844 -1.82031 c 0
 172.557 -1.82031 40 177.061 40 397.492 c 0
 40 617.923 172.558 796.773 335.844 796.773 c 0
 418.507 796.773 495.644 749.778 547.469 676.305 c 1
 552.041 669.123 554.222 661.061 554.222 653.053 c 0
 554.222 638.556 547.075 624.237 534.031 615.648 c 0
 525.303 609.901 517.47 607.513 510.337 607.513 c 0
 484.767 607.513 468.188 638.211 451.625 654.992 c 0
 401.426 705.85 353.045 708.055 335.844 708.055 c 0
 221.519 708.055 128.688 568.95 128.688 397.492 c 0
 128.688 226.034 221.519 86.8984 335.844 86.8984 c 0
 468.111 86.8984 528 261.507 528 286.68 c 0
 528 307.931 510.783 325.336 489.531 325.336 c 2
 246.906 325.336 l 2
 222.654 325.363 203 345.384 203 370.055 c 0
 203 394.742 222.694 413.93 246.969 413.93 c 0
 327.844 413.93 408.719 413.93 489.594 413.93 c 0
 559.807 413.93 616.188 356.861 616.188 286.648 c 0
EndSplineSet
Validated: 1
EndChar

StartChar: H
Encoding: 72 72 35
Width: 696
VWidth: -82
Flags: W
HStem: -0.695312 21G<83.5308 108.21 587 611.679> 324.148 88.5938<140.603 555.461> 775.648 20G<83.5308 108.21 587 611.679>
VStem: 52 88.5938<5.67225 324.148 412.742 789.281> 555.469 88.5938<5.67225 324.14 412.742 789.281>
LayerCount: 2
Fore
SplineSet
95.875 795.648 m 0
 120.546 795.648 140.566 775.963 140.594 751.68 c 2
 140.594 431.939 l 2
 140.594 422.286 152.621 412.742 162.273 412.742 c 2
 534.289 412.742 l 2
 544.273 412.742 555.469 423.94 555.469 433.926 c 2
 555.469 751.68 l 2
 555.469 775.954 574.655 795.648 599.344 795.648 c 0
 624.015 795.648 644.035 775.963 644.062 751.68 c 2
 644.062 43.2422 l 2
 644.035 18.9893 624.015 -0.695312 599.344 -0.695312 c 0
 574.655 -0.695312 555.469 18.999 555.469 43.2734 c 2
 555.469 303.103 l 2
 555.469 313.055 544.241 324.148 534.289 324.148 c 2
 162.273 324.148 l 2
 152.691 324.148 140.594 314.853 140.594 305.271 c 2
 140.594 43.2422 l 2
 140.566 18.9893 120.546 -0.695312 95.875 -0.695312 c 0
 71.1865 -0.695312 52 18.999 52 43.2734 c 2
 52 751.68 l 2
 52 775.954 71.1865 795.648 95.875 795.648 c 0
EndSplineSet
Validated: 1
EndChar

StartChar: I
Encoding: 73 73 36
Width: 355
VWidth: -80
Flags: W
HStem: -2.23438 88.5938<52.3676 133.151 222.131 302.945> 707.641 88.5938<52.3676 133.311 221.97 302.945>
VStem: 133.344 88.5938<86.3692 707.632>
LayerCount: 2
Fore
SplineSet
89.9688 796.234 m 2
 265.344 796.234 l 2
 289.618 796.234 309.312 777.047 309.312 752.359 c 0
 309.312 727.688 289.627 707.668 265.344 707.641 c 2
 243.641 707.641 l 2
 233.162 707.641 221.938 695.379 221.938 684.9 c 2
 221.938 110.529 l 2
 221.938 99.7012 232.812 86.3594 243.641 86.3594 c 2
 265.344 86.3594 l 2
 289.618 86.3594 309.312 67.1719 309.312 42.4844 c 0
 309.312 17.8135 289.627 -2.20703 265.344 -2.23438 c 2
 89.9062 -2.23438 l 0
 65.6533 -2.20703 46 17.8135 46 42.4844 c 0
 46 67.1729 65.6943 86.3594 89.9688 86.3594 c 2
 111.656 86.3594 l 2
 122.521 86.3594 133.344 99.8252 133.344 110.689 c 2
 133.344 685.061 l 2
 133.344 695.496 122.093 707.641 111.656 707.641 c 2
 89.9062 707.641 l 0
 65.6533 707.668 46 727.688 46 752.359 c 0
 46 777.048 65.6943 796.234 89.9688 796.234 c 2
EndSplineSet
Validated: 1
EndChar

StartChar: J
Encoding: 74 74 37
Width: 593
VWidth: -81
Flags: W
HStem: -1.01562 88.7188<179.648 314.009> 706.422 88.5938<225.086 365.375 453.969 541.445>
VStem: 40 88.75<139.562 243.368> 365.375 88.5938<140.457 706.422>
LayerCount: 2
Fore
SplineSet
128.75 205.875 m 0
 128.868 140.688 181.786 87.7031 247 87.7031 c 0
 312.287 87.7031 365.375 140.697 365.375 205.984 c 2
 365.375 706.422 l 1
 262.656 706.422 l 0
 238.404 706.449 218.719 726.47 218.719 751.141 c 0
 218.719 775.829 238.413 795.016 262.688 795.016 c 2
 503.844 795.016 l 2
 528.118 795.016 547.812 775.828 547.812 751.141 c 0
 547.812 726.47 528.127 706.449 503.844 706.422 c 2
 453.969 706.422 l 1
 453.969 199.578 l 2
 453.969 90.2197 359.111 -1.01562 247 -1.01562 c 0
 132.82 -1.01562 40.1182 91.7227 40 205.875 c 0
 40.1162 230.048 59.2617 249.734 83.875 249.734 c 0
 108.471 249.734 128.602 230.026 128.75 205.875 c 0
EndSplineSet
Validated: 1
EndChar

StartChar: K
Encoding: 75 75 38
Width: 637
VWidth: -81
Flags: W
HStem: -1.3125 21G<83.5312 108.211> -1.3125 21G<83.5312 108.211> 775.318 20G<542.062 553.26>
VStem: 52 88.5938<5.05484 323.531 419.3 788.663>
LayerCount: 2
Fore
SplineSet
140.594 431.068 m 2xb0
 140.594 415.186 148.096 413.228 154.455 419.592 c 2
 516.531 782.281 l 2
 525.178 790.943 536.43 795.318 547.693 795.318 c 0
 558.827 795.318 569.973 791.043 578.625 782.406 c 0
 587.47 773.577 591.906 762.018 591.906 750.524 c 0
 591.906 739.329 587.695 728.197 579.25 719.719 c 2
 275.328 415.266 l 2
 271.107 411.037 268.997 404.189 268.997 397.342 c 0
 268.997 390.493 271.107 383.644 275.328 379.414 c 2
 579.25 74.9375 l 2
 587.695 66.458 591.906 55.3271 591.906 44.1309 c 0
 591.906 32.6387 587.47 21.0791 578.625 12.25 c 0
 569.954 3.59375 558.819 -0.671875 547.706 -0.671875 c 0
 536.428 -0.671875 525.17 3.72168 516.531 12.375 c 2
 221 308.414 l 2
 211.71 317.719 197.714 323.531 184.564 323.531 c 2
 162.579 323.531 l 2
 152.236 323.531 140.594 311.979 140.594 301.637 c 2
 140.594 42.625 l 2
 140.594 18.3721 120.547 -1.3125 95.875 -1.3125 c 0
 71.1875 -1.3125 52 18.3809 52 42.6562 c 2
 52 751.062 l 2
 52 775.336 71.1875 795.031 95.875 795.031 c 0
 120.547 795.031 140.594 775.346 140.594 751.094 c 2
 140.594 431.068 l 2xb0
EndSplineSet
Validated: 1
EndChar

StartChar: L
Encoding: 76 76 39
Width: 528
VWidth: -81
Flags: W
HStem: -4.32812 88.5947<144.685 476.571>
VStem: 52.001 88.5938<90.6126 787.961>
LayerCount: 2
Fore
SplineSet
179.313 -4.32812 m 2
 109.087 -4.32812 52.001 51.4022 52.001 122.767 c 2
 52.001 750.359 l 2
 52.001 774.634 71.1885 794.328 95.876 794.328 c 0
 120.548 794.328 140.568 774.644 140.595 750.392 c 2
 140.595 124.203 l 2
 140.767 97.202 161.77 84.3594 179.251 84.3594 c 0
 179.644 84.3594 180.06 84.3252 180.47 84.2666 c 2
 438.97 84.2666 l 2
 463.244 84.2666 482.938 65.0791 482.938 40.3916 c 0
 482.938 15.7197 463.285 -4.30078 438.97 -4.32812 c 2
 179.313 -4.32812 l 2
EndSplineSet
Validated: 1
EndChar

StartChar: M
Encoding: 77 77 40
Width: 695
VWidth: -82
Flags: W
HStem: -1.17188 21G<83.5312 108.21 586.343 611.023> 349.016 88.6875<312.276 380.342>
VStem: 52 88.5938<5.19569 638.122> 554.812 88.5938<5.19569 638.911>
LayerCount: 2
Fore
SplineSet
597.703 795.172 m 0
 622.374 795.172 643.379 775.486 643.406 751.203 c 2
 643.406 42.7656 l 2
 643.379 18.5137 623.358 -1.17188 598.688 -1.17188 c 0
 573.999 -1.17188 554.812 18.5225 554.812 42.7969 c 2
 554.812 638.422 l 2
 554.812 642.447 545.929 642.562 544.465 638.734 c 2
 472.031 449.297 l 2
 470.525 445.357 468.796 441.497 467.5 437.484 c 0
 450.946 386.241 403.152 349.016 346.406 349.016 c 0
 289.452 349.016 241.344 386.513 224.906 438.047 c 1
 148.476 637.922 l 2
 146.814 642.269 140.594 641.704 140.594 637.574 c 2
 140.594 42.7656 l 2
 140.594 18.5137 120.546 -1.17188 95.875 -1.17188 c 0
 71.1875 -1.17188 52 18.5225 52 42.7969 c 2
 52 751.203 l 2
 52 775.478 71.2031 795.172 95.8906 795.172 c 0
 149.899 795.172 193.831 762.755 213 717.359 c 0
 213.131 717.049 303.344 480.953 303.344 480.953 c 1
 311.156 460.547 l 1
 319.77 441.259 337.546 437.703 346.344 437.703 c 0
 355.109 437.703 372.736 441.159 381.406 460.328 c 1
 479.625 717.359 l 1
 498.935 763.089 543.434 795.172 597.703 795.172 c 0
EndSplineSet
Validated: 1
EndChar

StartChar: N
Encoding: 78 78 41
Width: 518
VWidth: -81
Flags: W
HStem: -1.17188 21G<83.5308 108.21 393.194 434.469>
VStem: 52 164.844<632.935 746.287> 52 88.5938<5.19569 614.168> 377.406 88.5938<176.753 788.804>
LayerCount: 2
Fore
SplineSet
95.9062 795.172 m 0xb0
 152.457 795.172 200.344 758.116 216.844 707.016 c 1
 216.844 706.984 l 2xd0
 217.791 704.048 218.64 701.072 219.375 698.047 c 2
 367.529 177.148 l 2
 369.98 168.53 377.406 171.403 377.406 178.621 c 0
 377.406 369.492 377.406 560.363 377.406 751.234 c 0
 377.434 775.486 397.454 795.172 422.125 795.172 c 0
 446.813 795.172 466 775.478 466 751.203 c 2
 466 42.7969 l 2
 466 18.5225 446.813 -1.17188 422.125 -1.17188 c 2
 422.094 -1.17188 l 2
 364.294 -1.17188 317.144 36.0663 300.094 90.3594 c 0
 299.994 90.6846 183.071 501.831 183.071 501.831 c 1
 151.213 613.86 l 2
 149.31 620.554 140.594 618.904 140.594 611.761 c 2
 140.594 42.7656 l 2
 140.594 18.5137 120.546 -1.17188 95.875 -1.17188 c 0
 71.1865 -1.17188 52 18.5225 52 42.7969 c 2
 52 751.203 l 2
 52 775.478 71.1865 795.172 95.9062 795.172 c 0xb0
EndSplineSet
Validated: 1
EndChar

StartChar: O
Encoding: 79 79 42
Width: 671
VWidth: -81
Flags: W
HStem: -2.29688 88.7188<260.931 410.753> 707.578 88.7188<260.931 410.753>
VStem: 40 88.6875<261.077 532.949> 542.969 88.6875<261.077 532.949>
LayerCount: 2
Fore
SplineSet
335.844 796.297 m 0
 499.13 796.297 631.656 617.446 631.656 397.016 c 0
 631.656 176.585 499.13 -2.29688 335.844 -2.29688 c 0
 172.557 -2.29688 40 176.585 40 397.016 c 0
 40 617.446 172.557 796.297 335.844 796.297 c 0
335.844 707.578 m 0
 221.519 707.578 128.688 568.474 128.688 397.016 c 0
 128.688 225.558 221.519 86.4219 335.844 86.4219 c 0
 450.168 86.4219 542.969 225.558 542.969 397.016 c 0
 542.969 568.474 450.168 707.578 335.844 707.578 c 0
EndSplineSet
Validated: 1
EndChar

StartChar: P
Encoding: 80 80 43
Width: 505
VWidth: -80
Flags: W
HStem: -1.14062 21G<83.5347 108.214> 381.172 88.5938<140.603 326.544> 706.453 88.6875<144.967 324.678>
VStem: 52.0039 88.5938<5.22694 381.172 469.766 702.207> 377.285 88.6875<521.283 656.103>
LayerCount: 2
Fore
SplineSet
259.035 795.141 m 1
 384.38 793.182 465.973 693.648 465.973 588.172 c 0
 465.972 476.628 377.716 381.173 267.129 381.172 c 2
 140.598 381.172 l 1
 140.598 42.7969 l 2
 140.57 18.5449 120.55 -1.14062 95.8789 -1.14062 c 0
 71.1904 -1.14062 52.0039 18.5537 52.0039 42.8281 c 2
 52.0039 667.828 l 2
 52.0029 670.411 52.001 672.995 52 675.578 c 0
 52 740.415 109.292 795.139 174.941 795.141 c 2
 259.035 795.141 l 1
179.254 706.453 m 2
 158.003 706.453 140.469 689.141 140.59 667.891 c 2
 140.598 666.516 l 1
 140.598 485.828 l 2
 140.598 478.629 147.836 469.766 155.035 469.766 c 2
 259.035 469.766 l 2
 324.322 469.89 377.285 522.886 377.285 588.172 c 0
 377.285 653.459 324.322 706.453 259.035 706.453 c 2
 179.254 706.453 l 2
EndSplineSet
Validated: 33
EndChar

StartChar: Q
Encoding: 81 81 44
Width: 677
VWidth: 40
Flags: W
HStem: -1.82031 88.7188<260.931 411.606 551.993 623.986> 163.93 88.5107<382.854 454.379> 708.055 88.7188<260.931 410.753>
VStem: 40 88.6875<261.554 533.426> 542.969 88.6875<259.05 533.426>
LayerCount: 2
Fore
SplineSet
376.781 207.898 m 0
 376.781 237.526 399.171 252.44 428.012 252.44 c 0
 452.537 252.44 481.729 241.654 505.781 219.961 c 1
 529.221 270.292 542.969 331.486 542.969 397.492 c 0
 542.969 568.95 450.168 708.055 335.844 708.055 c 0
 221.519 708.055 128.688 568.95 128.688 397.492 c 0
 128.688 226.034 221.519 86.8984 335.844 86.8984 c 0
 380.054 86.8984 421.037 107.712 454.688 143.148 c 1
 448.213 155.425 435.45 163.93 420.75 163.93 c 0
 396.476 163.93 376.781 183.21 376.781 207.898 c 0
335.844 796.773 m 0
 499.129 796.773 631.656 617.923 631.656 397.492 c 0
 631.656 289.588 599.888 191.656 548.312 119.773 c 1
 551.046 101.189 567.1 86.8984 586.438 86.8984 c 0
 610.683 86.8652 630.344 67.5957 630.344 42.9297 c 0
 630.344 18.2588 610.689 -1.7627 586.438 -1.78906 c 0
 544.011 -1.76855 506.376 19.1963 483.25 51.2734 c 1
 439.847 17.5137 389.501 -1.82031 335.844 -1.82031 c 0
 172.557 -1.82031 40 177.061 40 397.492 c 0
 40 617.923 172.557 796.773 335.844 796.773 c 0
EndSplineSet
Validated: 524289
EndChar

StartChar: R
Encoding: 82 82 45
Width: 512
VWidth: -81
Flags: W
HStem: -1.14062 21.1279G<83.5312 108.21 415.95 427.199> 381.172 88.5938<140.599 173 261.594 326.54> 706.453 88.6875<144.963 324.674>
VStem: 52 88.5938<5.22694 381.172 469.772 702.207> 173 88.5938<317.024 381.172> 377.281 88.6875<521.283 656.103>
LayerCount: 2
Fore
SplineSet
259.031 795.141 m 1
 384.376 793.182 465.969 693.648 465.969 588.172 c 0
 465.968 476.628 377.712 381.173 267.125 381.172 c 2
 261.594 381.172 l 1
 261.594 356.609 l 2
 261.785 352.847 263.194 344.087 267.5 338.047 c 2
 459.25 68.9531 l 2
 464.675 61.3408 467.277 52.5537 467.277 43.8096 c 0
 467.277 29.8682 460.66 16.0332 448.312 7.23438 c 0
 440.477 1.65039 431.584 -1.0127 422.814 -1.0127 c 0
 409.085 -1.0127 395.659 5.51465 387.062 17.5781 c 2
 199.594 280.672 l 1
 182.894 302.176 172.96 329.183 173 358.516 c 2
 173 381.172 l 1
 140.594 381.172 l 1
 140.594 42.7969 l 2
 140.567 18.5449 120.546 -1.14062 95.875 -1.14062 c 0
 71.1875 -1.14062 52 18.5537 52 42.8281 c 2
 52 675.578 l 2
 52 740.415 109.288 795.139 174.938 795.141 c 2
 259.031 795.141 l 1
179.25 706.453 m 2
 157.999 706.453 140.473 689.141 140.594 667.891 c 2
 140.594 485.828 l 2
 140.594 478.629 147.832 469.766 155.031 469.766 c 2
 259.031 469.766 l 2
 324.318 469.89 377.281 522.886 377.281 588.172 c 0
 377.281 653.459 324.318 706.453 259.031 706.453 c 2
 179.25 706.453 l 2
EndSplineSet
Validated: 33
EndChar

StartChar: S
Encoding: 83 83 46
Width: 576
VWidth: -81
Flags: W
HStem: -0.21875 88.6875<200.381 404.251> 709.531 88.6875<172.593 378.505>
VStem: 40 88.7188<540.006 666.123> 59.6875 88.625<141.259 244.297> 428.531 88.625<553.703 656.375> 448.125 88.7188<131.876 257.994>
LayerCount: 2
Fore
SplineSet
266.656 -0.21875 m 2xe4
 139.656 0.0439453 59.5088 102.236 59.6875 200.969 c 2
 59.6875 206.75 l 2
 59.6553 230.995 78.8955 250.656 103.562 250.656 c 0
 128.223 250.656 148.268 230.988 148.312 206.75 c 0
 148.312 141.463 201.369 88.4688 266.656 88.4688 c 0
 291.854 88.4688 317.052 88.5 342.25 88.5 c 0
 400.696 88.5 448.125 135.929 448.125 194.375 c 0xd4
 448.125 235.13 426.178 268.295 392.688 287.656 c 2
 134.938 436.469 l 2
 78.8457 470 40 531.507 40 603.625 c 0
 40 709.157 124.113 798.219 228.969 798.219 c 2
 314.438 798.219 l 2
 423.889 797.983 517.355 706.896 517.156 597.031 c 2
 517.156 591.25 l 2
 517.188 567.005 497.948 547.344 473.281 547.344 c 0
 448.621 547.344 428.576 567.012 428.531 591.25 c 0xe8
 428.531 656.536 375.475 709.531 310.188 709.531 c 0
 284.99 709.531 259.792 709.5 234.594 709.5 c 0
 176.147 709.5 128.719 662.071 128.719 603.625 c 0
 128.719 562.87 150.666 529.705 184.156 510.344 c 2
 441.906 361.531 l 2
 497.997 327.996 536.844 266.494 536.844 194.375 c 0
 536.844 88.8418 452.73 -0.21875 347.875 -0.21875 c 2
 266.656 -0.21875 l 2xe4
EndSplineSet
Validated: 33
EndChar

StartChar: T
Encoding: 84 84 47
Width: 498
VWidth: -79
Flags: W
HStem: -1.14062 21G<236.438 261.117> 706.547 88.5938<48.3675 204.906 293.506 449.82>
VStem: 204.906 88.5938<5.22694 706.541>
LayerCount: 2
Fore
SplineSet
85.9678 795.141 m 2
 412.219 795.141 l 2
 436.493 795.141 456.188 775.953 456.188 751.266 c 0
 456.188 726.595 436.502 706.574 412.219 706.547 c 2
 308.339 706.547 l 2
 301.451 706.547 293.5 699.056 293.5 692.168 c 2
 293.5 42.7969 l 2
 293.474 18.5449 273.452 -1.14062 248.781 -1.14062 c 0
 224.094 -1.14062 204.906 18.5537 204.906 42.8281 c 2
 204.906 692.172 l 2
 204.906 699.064 196.933 706.547 190.039 706.547 c 2
 85.9062 706.547 l 2
 61.6533 706.574 42 726.595 42 751.266 c 0
 42 775.954 61.6943 795.141 85.9678 795.141 c 2
EndSplineSet
Validated: 1
EndChar

StartChar: U
Encoding: 85 85 48
Width: 695
VWidth: -80
Flags: W
HStem: -2.32812 88.7188<272.729 422.67> 776.328 20G<83.5308 108.21 587.446 612.125>
VStem: 52 88.5938<262.363 789.961> 555.062 88.5938<262.363 789.961>
LayerCount: 2
Fore
SplineSet
347.844 -2.32812 m 0
 183.35 -2.32812 52 179.288 52 395.453 c 2
 52 752.359 l 2
 52 776.634 71.1865 796.328 95.875 796.328 c 0
 120.546 796.328 140.566 776.643 140.594 752.391 c 2
 140.594 397.547 l 2
 140.648 397.361 140.688 397.175 140.688 396.984 c 0
 140.688 225.526 233.519 86.3906 347.844 86.3906 c 0
 462.169 86.3906 554.969 225.526 554.969 396.984 c 0
 554.969 397.175 555.008 397.361 555.062 397.547 c 2
 555.062 752.391 l 2
 555.09 776.643 575.11 796.328 599.781 796.328 c 0
 624.47 796.328 643.656 776.634 643.656 752.359 c 2
 643.656 395.453 l 2
 642.797 175.356 510.792 -2.32812 347.844 -2.32812 c 0
EndSplineSet
Validated: 1
EndChar

StartChar: V
Encoding: 86 86 49
Width: 688
VWidth: -280
Flags: W
HStem: -2.62695 88.6875<309.886 377.66> 776.628 19.9912G<89.6387 100.087 588.858 600.617>
LayerCount: 2
Fore
SplineSet
221.389 92.3887 m 2
 47.5137 741.248 l 2
 46.4902 745.065 46 748.918 46 752.719 c 0
 46 775.42 63.5098 796.256 89.6387 796.623 c 0
 90.2705 796.628 l 0
 109.903 796.628 127.814 783.768 133.076 764.217 c 2
 306.545 116.779 l 2
 312.577 93.9268 331.296 86.0605 344.514 86.0605 c 0
 359.676 86.0605 374.572 93.833 382.42 116.779 c 1
 555.889 764.217 l 2
 561.15 783.766 579.043 796.619 598.674 796.619 c 0
 602.56 796.619 606.514 796.115 610.451 795.061 c 0
 630.344 789.73 642.992 772.162 642.992 752.872 c 0
 642.992 749.038 642.493 745.136 641.451 741.248 c 2
 467.576 92.3887 l 2
 453.247 37.8945 403.58 -2.62695 344.576 -2.62695 c 0
 285.573 -2.62695 235.768 37.8945 221.389 92.3887 c 2
EndSplineSet
Validated: 1
EndChar

StartChar: W
Encoding: 87 87 50
Width: 693
VWidth: -80
Flags: W
HStem: -2.32812 88.7188<174.669 282.353 411.248 518.881> 776.328 20G<83.5308 108.21 585.383 610.063>
VStem: 52 88.6562<121.267 789.961> 302.437 88.7236<105.735 433.554> 552.937 88.6572<121.267 789.961>
LayerCount: 2
Fore
SplineSet
232.437 -2.32812 m 0
 134.505 -2.32812 52.1719 76.2861 52 173.672 c 2
 52 752.359 l 2
 52 776.634 71.1865 796.328 95.875 796.328 c 0
 120.546 796.328 140.566 776.643 140.594 752.391 c 2
 140.656 179.672 l 2
 140.662 129.058 181.823 86.3906 232.437 86.3906 c 0
 271.098 86.3906 302.437 117.762 302.437 156.422 c 2
 302.437 395.953 l 2
 302.437 420.228 321.624 439.922 346.312 439.922 c 0
 370.982 439.922 391.133 420.269 391.16 396.016 c 2
 391.16 161.703 l 1
 391.156 156.422 l 2
 391.157 117.762 422.496 86.3906 461.156 86.3906 c 0
 511.771 86.3906 552.932 129.058 552.937 179.672 c 2
 553 752.391 l 2
 553.027 776.643 573.048 796.328 597.719 796.328 c 0
 622.407 796.328 641.594 776.634 641.594 752.359 c 2
 641.594 173.672 l 2
 641.421 76.2881 558.863 -2.32812 461.156 -2.32812 c 0
 421.139 -2.32812 378.544 13.4453 346.812 46.4219 c 1
 315.078 13.4375 272.465 -2.32812 232.437 -2.32812 c 0
EndSplineSet
Validated: 1
EndChar

StartChar: X
Encoding: 88 88 51
Width: 516
VWidth: -490
Flags: W
HStem: -2.87318 21G<218.189 229.584 546.417 557.812> -2.87318 21G<218.189 229.584 546.417 557.812> 777.097 20G<218.403 230.075 546.576 558.105>
VStem: 176.599 84.3235<3.74129 22.5283 771.81 790.643> 333.662 108.676<341.64 452.871> 515.078 84.3232<3.74124 22.5283 771.81 790.642>
LayerCount: 2
Fore
SplineSet
201.859 792.56 m 0xbc
 208.464 795.662 215.172 797.097 221.634 797.097 c 0
 238.515 797.097 253.719 787.3 261.017 771.81 c 2
 380.078 518.362 l 2
 382.328 513.574 393.702 513.573 395.951 518.362 c 2
 514.984 771.81 l 2
 522.435 787.626 538.265 796.873 554.887 796.873 c 0
 561.323 796.873 567.877 795.487 574.109 792.56 c 0
 590.219 784.992 599.396 769.383 599.396 753.027 c 0
 599.396 746.696 598.021 740.253 595.142 734.122 c 2
 446.812 418.331 l 2
 443.829 411.981 442.339 404.634 442.339 397.286 c 0
 442.339 389.927 443.833 382.567 446.82 376.208 c 2
 595.297 60.1533 l 2
 598.083 54.2224 599.401 47.9711 599.401 41.7986 c 0
 599.401 25.1255 589.782 9.02729 573.484 1.37207 c 0
 567.343 -1.51266 560.944 -2.87318 554.68 -2.87318 c 0
 538.154 -2.87318 522.562 6.59587 515.078 22.5283 c 2
 395.957 276.181 l 2
 393.706 280.974 382.323 280.974 380.072 276.181 c 2
 260.923 22.5283 l 2
 253.439 6.59587 237.847 -2.87318 221.321 -2.87318 c 0
 215.057 -2.87318 208.658 -1.51266 202.517 1.37207 c 0
 186.219 9.02744 176.599 25.1262 176.599 41.7996 c 0
 176.599 47.9718 177.918 54.2228 180.703 60.1533 c 2
 329.181 376.208 l 2
 332.168 382.567 333.662 389.927 333.662 397.286 c 0
 333.662 404.634 332.172 411.981 329.189 418.331 c 2
 180.859 734.122 l 2
 177.976 740.261 176.598 746.713 176.598 753.052 c 0
 176.598 769.399 185.758 784.996 201.859 792.56 c 0xbc
EndSplineSet
Validated: 1
EndChar

StartChar: Y
Encoding: 89 89 52
Width: 691
VWidth: -895
Flags: W
HStem: -1.65625 21G<332.218 356.898> -1.65625 21G<332.218 356.898> 775.656 20G<81.5933 106.273 585.415 610.094>
VStem: 50 88.6875<577.163 789.289> 300.688 88.5938<4.71131 320.784> 552.968 88.6885<576.098 789.289>
LayerCount: 2
Fore
SplineSet
552.984 751.719 m 2xbc
 553.011 775.972 573.079 795.656 597.75 795.656 c 0
 622.438 795.656 641.656 775.962 641.656 751.688 c 2
 641.656 710.688 l 0
 641.646 540.554 557.142 359.333 402.562 318.78 c 0
 396.246 317.03 389.281 309.553 389.281 303.221 c 2
 389.281 42.2812 l 2
 389.281 18.0293 369.233 -1.65625 344.562 -1.65625 c 0
 319.874 -1.65625 300.688 18.0381 300.688 42.3125 c 2
 300.688 303.486 l 2
 300.688 326.906 267.625 312.216 201.665 362.037 c 0
 111.407 430.213 50.0078 560.833 50 710.719 c 2
 50 751.688 l 2
 50 775.962 69.249 795.656 93.9375 795.656 c 0
 118.608 795.656 138.676 775.972 138.703 751.719 c 2
 138.688 710.688 l 2
 138.71 539.258 231.532 400.125 345.843 400.125 c 0
 460.168 400.125 552.968 539.261 552.968 710.719 c 2
 552.984 751.719 l 2xbc
EndSplineSet
Validated: 1
EndChar

StartChar: Z
Encoding: 90 90 53
Width: 522
VWidth: -280
Flags: W
HStem: -2.23535 88.5957<136.101 471.695> 368.235 88.5938<125.305 192.25> 707.642 88.5938<50.3675 384.655>
VStem: 46.875 88.5625<86.8756 129.224> 118.938 263.312<374.727 450.583> 384.656 88.5938<663.738 707.064>
LayerCount: 2
Fore
SplineSet
46.875 92.0146 m 2xf4
 46.875 92.0166 l 0xf4
 46.875 108.9 51.3311 124.759 59.125 138.485 c 2
 192.25 368.235 l 1
 162.875 368.235 l 0
 138.622 368.262 118.938 388.283 118.938 412.954 c 0
 118.938 437.642 138.631 456.829 162.906 456.829 c 2
 243.594 456.829 l 1
 383.938 699.048 l 2
 384.369 699.794 384.656 701.13 384.656 701.923 c 0
 384.656 704.896 382.396 707.347 379.5 707.642 c 2
 87.9062 707.642 l 0
 63.6533 707.669 44 727.689 44 752.36 c 0
 44 777.049 63.6943 796.235 87.9678 796.235 c 2
 385.062 796.235 l 2
 435.545 796.235 473.249 751.854 473.25 701.829 c 0
 473.25 682.279 467.119 665.586 459.594 652.954 c 2
 345.562 456.235 l 1
 366.384 452.852 382.249 435.127 382.25 412.954 c 0xec
 382.249 388.283 362.597 368.262 338.281 368.235 c 2
 294.562 368.235 l 1
 136.25 95.0791 l 2
 135.501 93.7939 135.438 92.7041 135.438 92.1104 c 0
 135.438 88.9395 138.017 86.3604 141.188 86.3604 c 2
 434.094 86.3604 l 2
 458.367 86.3604 478.062 67.1729 478.062 42.4854 c 0
 478.062 17.8145 458.408 -2.20605 434.094 -2.2334 c 2
 141.281 -2.2334 l 2
 141.038 -2.2334 140.794 -2.23535 140.552 -2.23535 c 0
 93.0205 -2.23535 46.875 36.6777 46.875 92.0146 c 2xf4
EndSplineSet
Validated: 1
EndChar

StartChar: one
Encoding: 49 49 54
Width: 429
VWidth: -80
Flags: W
HStem: -1.83594 88.5938<54.3676 170.906 259.5 376.632> 776.789 20G<169.081 226.992>
VStem: 48.8438 88.75<566.63 684.043> 170.906 88.5938<86.7578 694.133>
LayerCount: 2
Fore
SplineSet
143.656 600.492 m 0
 146.441 593.983 147.689 587.62 147.689 581.58 c 0
 147.689 555.725 124.812 535.794 101.648 535.794 c 0
 86.3789 535.794 70.9844 544.455 61.9375 565.789 c 0
 53.5098 585.657 48.8438 607.511 48.8438 630.445 c 0
 48.8438 721.892 123.412 796.314 214.75 796.789 c 0
 239.234 796.575 259.473 777.002 259.5 752.883 c 2
 259.5 86.7578 l 1
 339.031 86.7578 l 2
 363.306 86.7578 383 67.5703 383 42.8828 c 0
 383 18.2119 363.346 -1.83594 339.062 -1.83594 c 2
 91.9375 -1.83594 l 2
 67.6846 -1.83594 48 18.2119 48 42.8828 c 0
 48 67.5703 67.6943 86.7578 91.9688 86.7578 c 2
 170.906 86.7578 l 1
 170.906 694.133 l 1
 150.799 680.119 137.594 656.854 137.594 630.539 c 0
 137.594 619.912 139.721 609.688 143.656 600.492 c 0
EndSplineSet
Validated: 1
EndChar

StartChar: two
Encoding: 50 50 55
Width: 496
VWidth: 40
Flags: W
HStem: -3.17969 88.6406<132.494 447.476> 709.445 88.6875<179.591 314.401>
VStem: 40 88.625<90.7034 161.51 575.46 657.552> 365.25 88.6875<522.721 658.596>
LayerCount: 2
Fore
SplineSet
167.25 85.4609 m 2
 409.875 85.4141 l 2
 434.149 85.4141 453.844 66.2266 453.844 41.5391 c 0
 453.844 16.8682 434.158 -3.15332 409.906 -3.17969 c 2
 167.312 -3.17969 l 2
 97.0996 -3.17969 40 53.7012 40 123.914 c 0
 40 155.57 51.9746 185.111 71.2188 207.352 c 2
 338.25 515.977 l 2
 364.384 546.19 365.25 574.873 365.25 591.195 c 0
 365.25 656.482 312.287 709.445 247 709.445 c 0
 181.713 709.445 128.719 656.482 128.719 591.195 c 0
 128.719 558.552 40 534.068 40 591.195 c 0
 40 705.448 132.747 798.133 247 798.133 c 0
 361.253 798.133 453.938 705.448 453.938 591.195 c 0
 453.938 562.632 448.163 535.395 437.688 510.633 c 0
 432.449 498.252 419.518 474.553 407.656 460.789 c 2
 360.5 406.258 l 1
 137.438 148.477 l 2
 134.618 145.218 132.632 141.251 131.656 138.945 c 0
 129.704 134.334 128.625 129.289 128.625 123.977 c 0
 128.625 102.725 145.999 85.4609 167.25 85.4609 c 2
EndSplineSet
Validated: 33
EndChar

StartChar: zero
Encoding: 48 48 56
Width: 517
VWidth: -80
Flags: W
HStem: -3.32812 88.75<191.764 326.269> 706.766 88.6875<191.754 326.27>
VStem: 52 88.7188<136.95 655.541> 377.188 88.75<137.893 654.287>
LayerCount: 2
Fore
SplineSet
259 795.453 m 0
 373.253 795.453 465.938 702.112 465.938 587.859 c 2
 465.938 204.328 l 2
 465.938 90.0732 373.253 -3.32812 258.998 -3.32812 c 0
 145.383 -3.32812 53.0264 89.5156 52 202.891 c 1
 52 589.766 l 2
 51.9961 702.86 145.593 795.453 259 795.453 c 0
259 706.766 m 0
 193.713 706.766 140.719 653.802 140.719 588.516 c 2
 140.719 203.672 l 2
 140.719 138.384 193.713 85.4219 259.002 85.4219 c 0
 323.73 85.4219 377.188 138.336 377.188 202.859 c 2
 377.188 589.359 l 2
 377.188 653.891 323.735 706.766 259 706.766 c 0
285.562 477.922 m 2
 294.218 486.577 305.464 490.949 316.72 490.949 c 0
 327.857 490.949 339.004 486.668 347.656 478.016 c 0
 356.481 469.19 360.905 457.646 360.905 446.17 c 0
 360.905 434.958 356.684 423.812 348.219 415.328 c 2
 241.094 308.172 l 2
 232.622 299.7 221.479 295.479 210.269 295.479 c 0
 198.787 295.479 187.233 299.907 178.406 308.734 c 0
 169.73 317.41 165.454 328.567 165.454 339.704 c 0
 165.454 350.976 169.835 362.226 178.469 370.859 c 2
 285.562 477.922 l 2
EndSplineSet
Validated: 33
EndChar

StartChar: three
Encoding: 51 51 57
Width: 493
VWidth: -282
Flags: W
HStem: -1.92969 88.75<179.591 314.401> 708.195 88.6875<179.591 314.401>
VStem: 40 88.7188<137.666 276.541 518.443 657.322> 56.5312 85.0464<206.407 305.913 489.071 588.577> 272.125 88.7188<362.228 432.166> 365.25 88.6875<137.666 272.028 523.397 657.322>
LayerCount: 2
Fore
SplineSet
138.031 251.086 m 0xdc
 132.052 236.945 128.719 221.381 128.719 205.07 c 0
 128.719 139.783 181.713 86.8203 247 86.8203 c 0
 312.287 86.8203 365.25 139.783 365.25 205.07 c 0
 365.25 304.231 272.125 293.151 272.125 397.383 c 0
 272.125 500.417 365.25 490.903 365.25 589.914 c 0
 365.25 655.201 312.287 708.195 247 708.195 c 0
 181.713 708.195 128.719 655.201 128.719 589.914 c 0
 128.719 573.593 132.045 558.062 138.031 543.914 c 0
 140.439 538.242 141.587 532.361 141.587 526.586 c 0
 141.587 509.62 131.675 493.572 114.656 486.414 c 0
 109.032 484.048 103.186 482.935 97.4298 482.935 c 0
 80.2875 482.935 63.9283 492.806 56.5 508.867 c 0
 46.0439 533.604 40 561.386 40 589.914 c 0
 40 704.167 132.747 796.883 247 796.883 c 0
 361.253 796.883 453.938 704.167 453.938 589.914 c 0
 453.938 484.521 381.28 433.83 372.156 424.695 c 0
 365.18 417.711 360.844 408.071 360.844 397.445 c 0
 360.844 373.482 376.272 368.454 393.312 351.414 c 0
 430.77 313.957 453.938 262.196 453.938 205.07 c 0
 453.937 90.8164 361.253 -1.92969 247 -1.92969 c 0
 132.747 -1.92969 40 90.8164 40 205.07 c 0xec
 40 233.599 46.0752 261.384 56.5312 286.117 c 0
 63.9588 302.179 80.3009 312.049 97.4346 312.049 c 0
 103.188 312.049 109.032 310.936 114.656 308.57 c 0
 131.672 301.413 141.578 285.362 141.578 268.397 c 0
 141.578 262.628 140.432 256.753 138.031 251.086 c 0xdc
EndSplineSet
Validated: 1
EndChar

StartChar: period
Encoding: 46 46 58
Width: 244
VWidth: -25
Flags: W
HStem: -28.2686 62.2188<108.399 135.681> 61.6064 62.2188<108.399 135.681>
VStem: 46 62.2197<34.1296 61.4119> 135.875 62.25<34.1295 61.412>
LayerCount: 2
Fore
SplineSet
122.031 123.825 m 0
 164.021 123.825 198.125 89.752 198.125 47.7627 c 0
 198.125 5.77344 164.021 -28.2686 122.031 -28.2686 c 0
 80.042 -28.2686 46 5.77441 46 47.7627 c 0
 46 89.751 80.042 123.825 122.031 123.825 c 0
122.063 61.6064 m 0
 114.429 61.6064 108.22 55.3975 108.22 47.7627 c 0
 108.22 40.1279 114.429 33.9502 122.063 33.9502 c 0
 129.698 33.9502 135.875 40.1279 135.875 47.7627 c 0
 135.875 55.3975 129.698 61.6064 122.063 61.6064 c 0
EndSplineSet
Validated: 1
EndChar

StartChar: comma
Encoding: 44 44 59
Width: 249
VWidth: -25
Flags: W
HStem: -107.211 141.172<36.9888 131.386> -107.211 93.0137<13.8172 72.4588> 61.6172 62.2188<113.992 141.275>
VStem: 51.5938 62.2188<33.9962 61.4226> 141.469 62.25<34.8492 61.3623>
LayerCount: 2
Fore
SplineSet
48.875 -107.211 m 0xb8
 25.1025 -106.648 6 -86.7627 6 -62.4453 c 0
 6 -13.9717 54.2266 -20.9775 72.2627 -14.1973 c 0x78
 74.3398 -13.415 75.2109 -12.3643 75.2109 -10.9766 c 0
 75.2109 -3.75195 51.5938 12.6084 51.5938 47.7734 c 0
 51.5938 89.7617 85.6357 123.836 127.625 123.836 c 0
 169.614 123.836 203.719 89.6377 203.719 47.6484 c 0
 203.719 -37.8818 134.404 -107.211 48.875 -107.211 c 0xb8
127.656 61.6172 m 0
 120.021 61.6172 113.812 55.4082 113.812 47.7734 c 0
 113.812 40.1387 120.021 33.9609 127.656 33.9609 c 0xb8
 135.291 33.9609 141.469 40.1387 141.469 47.7734 c 0
 141.469 55.4082 135.291 61.6172 127.656 61.6172 c 0
EndSplineSet
Validated: 1
EndChar

StartChar: semicolon
Encoding: 59 59 60
Width: 248
VWidth: -25
Flags: W
HStem: -80.4512 141.156<35.9888 130.386> -80.4512 93<12.8203 71.4588> 88.3613 62.2188<112.992 140.275> 350.299 62.2188<112.995 140.278> 440.174 62.2188<112.996 140.279>
VStem: 50.5938 62.2188<61.3217 88.1669 412.697 439.98> 140.469 62.25<61.5935 88.1065 412.697 439.979>
LayerCount: 2
Fore
SplineSet
126.63 502.393 m 0x3e
 168.618 502.393 202.722 468.319 202.722 426.33 c 0
 202.722 384.342 168.617 350.299 126.628 350.299 c 0
 84.6396 350.299 50.5967 384.342 50.5967 426.33 c 0
 50.5967 468.32 84.6396 502.393 126.63 502.393 c 0x3e
126.659 440.174 m 0
 119.024 440.174 112.815 433.966 112.815 426.33 c 0
 112.815 418.695 119.024 412.519 126.659 412.518 c 0
 134.295 412.518 140.472 418.695 140.472 426.33 c 0
 140.472 433.966 134.295 440.174 126.659 440.174 c 0
126.625 150.58 m 0
 168.614 150.58 202.719 116.382 202.719 74.3926 c 0
 202.719 -11.1367 133.404 -80.4502 47.875 -80.4512 c 0xbe
 24.1025 -79.8877 5 -60.0186 5 -35.7012 c 0
 5 12.8574 53.25 5.78125 71.25 12.5488 c 0x7e
 73.3809 13.3506 74.2725 14.3916 74.2725 15.7588 c 0
 74.2725 22.7998 50.5938 38.4766 50.5938 74.5176 c 0
 50.5938 116.507 84.6357 150.58 126.625 150.58 c 0
126.656 88.3613 m 0
 119.021 88.3613 112.812 82.1533 112.812 74.5176 c 0
 112.812 66.8828 119.021 60.7061 126.656 60.7051 c 0
 134.291 60.7051 140.469 66.8828 140.469 74.5176 c 0
 140.469 82.1533 134.291 88.3613 126.656 88.3613 c 0
EndSplineSet
Validated: 1
EndChar

StartChar: colon
Encoding: 58 58 61
Width: 236
VWidth: -30
Flags: W
HStem: -0.570312 62.2188<104.398 131.681> 89.3047 62.2188<104.398 131.681> 351.523 62.2188<104.398 131.681> 441.398 62.2188<104.398 131.681>
VStem: 42 62.2188<61.8278 89.1101 413.922 441.204> 131.875 62.25<61.8278 89.1102 413.922 441.204>
LayerCount: 2
Fore
SplineSet
118.031 503.617 m 0
 160.021 503.617 194.125 469.544 194.125 427.555 c 0
 194.125 385.565 160.021 351.523 118.031 351.523 c 0
 76.042 351.523 42 385.566 42 427.555 c 0
 42 469.543 76.042 503.617 118.031 503.617 c 0
118.062 441.398 m 0
 110.428 441.398 104.219 435.189 104.219 427.555 c 0
 104.219 419.92 110.428 413.742 118.062 413.742 c 0
 125.697 413.742 131.875 419.92 131.875 427.555 c 0
 131.875 435.189 125.697 441.398 118.062 441.398 c 0
118.031 151.523 m 0
 160.021 151.523 194.125 117.45 194.125 75.4609 c 0
 194.125 33.4717 160.021 -0.570312 118.031 -0.570312 c 0
 76.042 -0.570312 42 33.4717 42 75.4609 c 0
 42 117.449 76.042 151.523 118.031 151.523 c 0
118.062 89.3047 m 0
 110.428 89.3047 104.219 83.0957 104.219 75.4609 c 0
 104.219 67.8262 110.428 61.6484 118.062 61.6484 c 0
 125.697 61.6484 131.875 67.8252 131.875 75.4609 c 0
 131.875 83.0957 125.697 89.3047 118.062 89.3047 c 0
EndSplineSet
Validated: 1
EndChar

StartChar: four
Encoding: 52 52 62
Width: 558
VWidth: 175
Flags: W
HStem: 324.102 88.7188<149.02 339.781 428.375 506.351> 775.57 20G<321.237 360.121>
VStem: 40 88.7188<431.423 526.676> 339.781 88.5938<5.75038 324.164 412.82 706.131>
LayerCount: 2
Fore
SplineSet
269.688 770.227 m 2
 283.229 783.588 308.35 795.57 334.125 795.57 c 0
 386.116 795.57 428.257 753.252 428.375 701.289 c 2
 428.375 412.82 l 1
 468.75 412.82 l 2
 493.024 412.82 512.719 393.634 512.719 368.945 c 0
 512.719 344.274 493.065 324.254 468.75 324.227 c 2
 428.375 324.195 l 1
 428.375 43.2891 l 2
 428.375 19.0361 408.327 -0.617188 383.656 -0.617188 c 0
 358.969 -0.617188 339.781 19.0771 339.781 43.3516 c 2
 339.781 324.164 l 1
 319.969 324.133 l 1
 200.25 324.102 l 1
 195.094 324.102 l 2
 109.563 324.102 40 393.384 40 478.914 c 0
 40 522.852 58.4648 561.535 85.6875 588.758 c 2
 269.688 770.227 l 2
329.984 705.273 m 2
 148.062 525.727 l 2
 136.027 513.847 128.719 497.062 128.719 478.852 c 0
 128.719 442.379 158.375 412.837 194.844 412.82 c 2
 339.781 412.82 l 1
 339.781 701.227 l 2
 339.781 704.397 337.202 707.008 334.031 707.008 c 0
 332.462 707.008 331.023 706.298 329.984 705.273 c 2
EndSplineSet
Validated: 1
EndChar

StartChar: five
Encoding: 53 53 63
Width: 513
VWidth: 175
Flags: W
HStem: 0.484375 88.75<199.218 334.029> 325.859 88.6406<145.561 332.957> 708.609 88.6875<147.509 452.448>
VStem: 52.0029 88.6562<419.721 702.182> 59.6279 88.7188<140.08 278.744> 384.878 88.6875<140.08 274.897>
LayerCount: 2
Fore
SplineSet
179.862 414.5 m 2xf4
 266.597 414.453 l 2
 380.85 414.453 473.565 321.737 473.565 207.484 c 0
 473.564 93.2305 380.881 0.484375 266.628 0.484375 c 0
 152.375 0.484375 59.6279 93.2305 59.6279 207.484 c 0
 59.6279 236.048 65.4287 263.289 75.9092 288.047 c 0
 83.0176 304.664 99.3496 314.625 116.646 314.625 c 0
 122.522 314.625 128.51 313.476 134.284 311.047 c 0
 151.303 303.889 161.215 287.84 161.215 270.875 c 0
 161.215 265.101 160.066 259.22 157.659 253.547 c 0
 151.672 239.399 148.347 223.806 148.347 207.484 c 0xec
 148.347 142.197 201.341 89.2344 266.628 89.2344 c 0
 331.915 89.2344 384.878 142.197 384.878 207.484 c 0
 384.878 272.771 331.446 325.797 266.159 325.797 c 2
 179.315 325.859 l 2
 112.213 325.859 51.5049 377.811 52.0029 443.703 c 2
 52.0029 670.578 l 2
 52.3242 740.403 109.286 797.111 179.144 797.297 c 2
 414.847 797.297 l 2
 439.121 797.297 458.815 778.109 458.815 753.422 c 0
 458.815 728.751 439.161 708.713 414.909 708.703 c 2
 179.253 708.609 l 2
 158.001 708.601 140.659 690.674 140.659 669.422 c 2
 140.659 453.609 l 2
 140.659 432.357 158.61 414.5 179.862 414.5 c 2xf4
EndSplineSet
Validated: 33
EndChar

StartChar: six
Encoding: 54 54 64
Width: 505
VWidth: -82
Flags: W
HStem: -1.97656 88.75<191.592 326.402> 323.305 88.75<190.957 325.211> 708.242 88.6875<192.125 326.672>
VStem: 52.001 88.7188<138.659 272.076 374.805 657.79> 377.251 88.6875<138.659 270.371 552.443 655.543>
LayerCount: 2
Fore
SplineSet
258.97 412.055 m 0
 384.735 412.055 467.665 304.792 465.938 205.023 c 1
 465.938 90.7695 373.254 -1.97656 259.001 -1.97656 c 0
 144.748 -1.97656 52.001 90.7695 52.001 205.023 c 2
 52.001 598.773 l 2
 51.6055 708.458 147.688 796.93 259.001 796.93 c 0
 352.141 796.93 463.756 729.448 465.97 589.992 c 0
 465.937 565.747 446.762 546.086 422.095 546.086 c 0
 397.424 546.086 377.402 565.739 377.282 589.992 c 0
 377.282 655.278 324.288 708.242 259.001 708.242 c 0
 193.714 708.242 140.626 655.278 140.626 589.992 c 0
 140.61 588.523 140.609 587.055 140.595 585.586 c 2
 140.595 374.805 l 1
 175.406 398.282 213.921 412.055 258.97 412.055 c 0
377.251 205.086 m 0
 377.22 269.308 325.227 323.305 258.97 323.305 c 0
 195.816 323.305 140.72 272.442 140.72 205.023 c 0
 140.72 139.736 193.714 86.7734 259.001 86.7734 c 0
 324.288 86.7734 377.251 139.736 377.251 205.086 c 0
EndSplineSet
Validated: 33
EndChar

StartChar: seven
Encoding: 55 55 65
Width: 589
VWidth: -80
Flags: W
HStem: -1.75781 21G<148.406 173.085> -1.75781 21G<148.406 173.085> 386.086 88.5938<229.868 272.812 426.875 466.851> 708.117 88.5938<52.3676 455.164>
VStem: 116.75 88.7188<4.60975 129.561> 223.5 249.719<392.578 468.434> 455.969 88.5938<663.741 707.636>
LayerCount: 2
Fore
SplineSet
89.9688 796.711 m 2xba
 450.312 796.711 l 2
 502.376 796.711 544.562 754.368 544.562 702.305 c 0xba
 544.562 684.084 539.394 667.066 530.438 652.648 c 2
 426.875 474.68 l 1
 429.25 474.68 l 2
 453.524 474.68 473.219 455.492 473.219 430.805 c 0
 473.219 406.134 453.533 386.113 429.25 386.086 c 2
 375.312 386.086 l 1
 210.562 103.023 l 2
 207.673 98.0547 205.469 91.5107 205.469 83.8359 c 0
 205.469 83.4062 205.539 82.9746 205.469 82.5234 c 2
 205.469 42.1484 l 2
 205.469 17.8955 185.421 -1.75781 160.75 -1.75781 c 0
 136.062 -1.75781 116.75 17.9365 116.75 42.2109 c 2
 116.75 83.8359 l 2
 116.75 105.576 121.672 126.448 131.938 144.055 c 2
 272.812 386.086 l 1
 267.406 386.086 l 0
 243.153 386.113 223.5 406.134 223.5 430.805 c 0xbc
 223.5 455.492 243.194 474.68 267.469 474.68 c 2
 324.344 474.68 l 1
 455.125 699.398 l 2
 455.612 700.179 455.969 701.275 455.969 702.398 c 0
 455.969 705.371 453.677 708.117 450.781 708.117 c 2
 89.9062 708.117 l 2
 65.6533 708.117 46 728.165 46 752.836 c 0
 46 777.523 65.6943 796.711 89.9688 796.711 c 2xba
EndSplineSet
Validated: 1
EndChar

StartChar: hyphen
Encoding: 45 45 66
Width: 506
VWidth: -235
Flags: W
HStem: 244.877 88.5947<52.3676 454.047>
LayerCount: 2
Fore
SplineSet
460.415 289.596 m 0
 460.415 264.925 440.745 244.903 416.493 244.877 c 2
 89.9219 244.877 l 2
 65.6689 244.903 46 264.925 46 289.596 c 0
 46 314.284 65.6943 333.472 89.9688 333.472 c 2
 416.446 333.472 l 2
 440.721 333.472 460.415 314.284 460.415 289.596 c 0
EndSplineSet
Validated: 1
EndChar

StartChar: eight
Encoding: 56 56 67
Width: 553
VWidth: -80
Flags: W
HStem: -6.69531 88.7188<198.871 354.498> 353.117 88.7188<196.939 356.427> 712.93 88.7188<198.871 354.498>
VStem: 40 88.6875<149.115 287.592 507.945 645.863> 424.656 88.6875<149.115 287.055 507.391 645.863>
CounterMasks: 1 e0
LayerCount: 2
Fore
SplineSet
276.688 801.648 m 0
 407.335 801.648 513.344 701.193 513.344 577.398 c 0
 513.344 556.008 510.009 470.134 428.577 405.444 c 0
 426.498 403.793 425.557 401.975 425.557 399.924 c 0
 425.557 380.132 513.344 338.758 513.344 217.586 c 0
 513.343 93.791 407.335 -6.69531 276.688 -6.69531 c 0
 146.041 -6.69531 40 93.791 40 217.586 c 0
 40 238.979 43.3301 324.868 124.765 389.542 c 0
 126.838 391.188 127.777 393.003 127.777 395.05 c 0
 127.777 414.836 40 456.334 40 577.398 c 0
 40 701.193 146.041 801.648 276.688 801.648 c 0
276.688 712.93 m 0
 194.999 712.93 128.688 652.222 128.688 577.398 c 0
 128.688 502.574 194.999 441.836 276.688 441.836 c 0
 358.376 441.836 424.656 502.574 424.656 577.398 c 0
 424.656 652.222 358.376 712.93 276.688 712.93 c 0
276.688 353.117 m 0
 194.999 353.117 128.688 292.409 128.688 217.586 c 0
 128.688 142.762 194.999 82.0234 276.688 82.0234 c 0
 358.376 82.0234 424.656 142.762 424.656 217.586 c 0
 424.656 292.409 358.376 353.117 276.688 353.117 c 0
EndSplineSet
Validated: 1
EndChar

StartChar: nine
Encoding: 57 57 68
Width: 500
VWidth: -80
Flags: W
HStem: -2.76384 21G<86.4264 97.8527> 380.95 88.7188<187.295 247.05> 706.2 88.6875<186.255 321.067>
VStem: 46.6592 88.75<520.541 655.351> 371.94 88.6875<519.517 655.351>
LayerCount: 2
Fore
SplineSet
427.394 475.466 m 2
 127.409 16.9189 l 2
 119.053 4.14573 105.044 -2.76384 90.6612 -2.76384 c 0
 82.1916 -2.76384 73.5921 -0.367851 65.9404 4.6377 c 0
 52.9139 13.1595 45.9997 27.0354 45.9997 41.2176 c 0
 45.9997 49.5285 48.3741 57.9447 53.2842 65.4502 c 2
 253.301 371.182 l 2
 255.084 373.908 258.536 380.966 253.659 380.95 c 0
 139.406 380.95 46.6592 473.697 46.6592 587.95 c 0
 46.6592 702.204 139.406 794.888 253.659 794.888 c 0
 367.912 794.888 460.628 702.204 460.628 587.95 c 0
 460.627 546.489 448.408 507.858 427.394 475.466 c 2
253.659 706.2 m 0
 188.372 706.2 135.409 653.237 135.409 587.95 c 0
 135.409 522.664 188.372 469.67 253.659 469.669 c 0
 318.946 469.669 371.94 522.664 371.94 587.95 c 0
 371.94 653.237 318.946 706.2 253.659 706.2 c 0
EndSplineSet
Validated: 1
EndChar

StartChar: underscore
Encoding: 95 95 69
Width: 594
VWidth: -410
Flags: W
HStem: -212.537 88.5957<6.36756 588.047>
LayerCount: 2
Fore
SplineSet
594.415 -167.818 m 0
 594.415 -192.489 574.745 -212.537 550.493 -212.537 c 2
 43.9219 -212.537 l 2
 19.6689 -212.537 0 -192.489 0 -167.818 c 0
 0 -143.13 19.6943 -123.941 43.9688 -123.941 c 2
 550.446 -123.941 l 2
 574.721 -123.941 594.415 -143.13 594.415 -167.818 c 0
EndSplineSet
Validated: 1
EndChar

StartChar: equal
Encoding: 61 61 70
Width: 506
VWidth: -285
Flags: W
HStem: 141.886 88.5938<52.3676 453.632> 322.886 88.5938<52.3676 453.632>
LayerCount: 2
Fore
SplineSet
89.9688 411.479 m 2
 416.031 411.479 l 2
 440.306 411.479 460 392.293 460 367.604 c 0
 460 342.934 440.314 322.886 416.062 322.886 c 2
 89.9375 322.886 l 2
 65.6855 322.886 46 342.934 46 367.604 c 0
 46 392.292 65.6943 411.479 89.9688 411.479 c 2
89.9688 230.479 m 2
 416.031 230.479 l 2
 440.306 230.479 460 211.293 460 186.604 c 0
 460 161.934 440.314 141.886 416.062 141.886 c 2
 89.9375 141.886 l 2
 65.6855 141.886 46 161.934 46 186.604 c 0
 46 211.292 65.6943 230.479 89.9688 230.479 c 2
EndSplineSet
Validated: 1
EndChar

StartChar: plus
Encoding: 43 43 71
Width: 506
VWidth: -235
Flags: W
HStem: 244.886 88.5938<52.3676 208.932 297.537 454.07>
VStem: 208.938 88.5938<88.3471 244.88 333.485 490.018>
LayerCount: 2
Fore
SplineSet
253.656 496.386 m 0
 278.345 496.386 297.531 476.691 297.531 452.417 c 2
 297.531 348.347 l 2
 297.531 341.338 305.39 333.479 312.398 333.479 c 2
 416.469 333.479 l 2
 440.743 333.479 460.438 314.293 460.438 289.604 c 0
 460.438 264.934 440.753 244.886 416.5 244.886 c 2
 312.402 244.886 l 2
 305.393 244.886 297.531 237.027 297.531 230.019 c 2
 297.531 125.948 l 2
 297.531 101.674 278.345 81.9795 253.656 81.9795 c 0
 228.985 81.9795 208.938 101.633 208.938 125.886 c 2
 208.938 230.011 l 2
 208.938 237.022 201.074 244.886 194.062 244.886 c 2
 89.9375 244.886 l 2
 65.6855 244.886 46 264.934 46 289.604 c 0
 46 314.292 65.6943 333.479 89.9688 333.479 c 2
 194.066 333.479 l 2
 201.077 333.479 208.938 341.34 208.938 348.351 c 2
 208.938 452.448 l 2
 208.938 476.7 228.985 496.386 253.656 496.386 c 0
EndSplineSet
Validated: 1
EndChar

StartChar: asterisk
Encoding: 42 42 72
Width: 506
VWidth: -285
Flags: W
HStem: 389.636 88.5938<99.8959 175.042 331.208 406.504> 504.886 88.5938<52.3678 208.932 297.537 454.07> 620.979 87.875<99.9333 175.79 330.825 407.074>
VStem: 93.5312 87.875<395.881 471.737 626.804 703.03> 208.938 88.5938<348.347 504.88 593.485 750.018> 324.156 88.5938<395.875 471.021 627.187 702.484>
LayerCount: 2
Fore
SplineSet
253.656 756.386 m 0
 278.345 756.386 297.531 736.691 297.531 712.417 c 2
 297.531 608.354 l 2
 297.531 601.346 305.398 593.479 312.406 593.479 c 2
 416.469 593.479 l 2
 440.743 593.479 460.438 574.293 460.438 549.604 c 0
 460.438 524.934 440.753 504.886 416.5 504.886 c 2
 312.406 504.886 l 2
 305.397 504.886 297.531 497.02 297.531 490.011 c 2
 297.531 385.948 l 2
 297.531 361.674 278.345 341.979 253.656 341.979 c 0
 228.985 341.979 208.938 361.633 208.938 385.886 c 2
 208.938 490.011 l 2
 208.938 497.022 201.075 504.886 194.062 504.886 c 2
 89.9375 504.886 l 2
 65.6855 504.886 46 524.934 46 549.604 c 0
 46 574.292 65.6953 593.479 89.9688 593.479 c 2
 194.062 593.479 l 2
 201.073 593.479 208.938 601.344 208.938 608.354 c 2
 208.938 712.448 l 2
 208.938 736.7 228.985 756.386 253.656 756.386 c 0
137.562 708.854 m 0
 162.234 708.854 182.255 689.169 182.281 664.917 c 0
 182.281 640.664 162.233 620.979 137.562 620.979 c 0
 112.875 620.979 93.6875 640.643 93.6875 664.917 c 0
 93.6875 689.191 112.875 708.854 137.562 708.854 c 0
368.938 708.729 m 0
 393.212 708.729 412.906 689.542 412.906 664.854 c 0
 412.906 640.184 393.19 620.162 368.938 620.136 c 0
 344.686 620.136 325.001 640.184 325 664.854 c 0
 325.001 689.542 344.663 708.729 368.938 708.729 c 0
137.469 478.229 m 0
 161.722 478.229 181.406 458.182 181.406 433.511 c 0
 181.406 408.822 161.743 389.636 137.469 389.636 c 0
 113.195 389.636 93.5312 408.822 93.5312 433.511 c 0
 93.5322 458.182 113.217 478.202 137.469 478.229 c 0
368.875 477.386 m 0
 393.563 477.386 412.75 457.723 412.75 433.448 c 0
 412.75 409.174 393.563 389.511 368.875 389.511 c 0
 344.204 389.511 324.184 409.195 324.156 433.448 c 0
 324.156 457.7 344.204 477.386 368.875 477.386 c 0
EndSplineSet
Validated: 1
EndChar

StartChar: exclam
Encoding: 33 33 73
Width: 240
VWidth: -80
Flags: W
HStem: -32.2656 62.2188<106.398 133.681> 57.6094 62.2188<106.398 133.681>
VStem: 44 62.2188<30.1326 57.4148> 76.1875 88.5938<184.258 787.898> 133.875 62.25<30.1324 57.4149>
LayerCount: 2
Fore
SplineSet
120.062 794.266 m 0xd0
 144.733 794.266 164.754 774.612 164.781 750.359 c 2
 164.781 221.828 l 2
 164.781 197.575 144.733 177.891 120.062 177.891 c 0
 95.374 177.891 76.1875 197.585 76.1875 221.859 c 2
 76.1875 750.297 l 2
 76.1875 774.571 95.375 794.266 120.062 794.266 c 0xd0
120.031 119.828 m 0
 162.021 119.828 196.125 85.7549 196.125 43.7656 c 0
 196.125 1.77637 162.021 -32.2656 120.031 -32.2656 c 0
 78.042 -32.2656 44 1.77734 44 43.7656 c 0xe8
 44 85.7539 78.042 119.828 120.031 119.828 c 0
120.062 57.6094 m 0
 112.428 57.6094 106.219 51.4004 106.219 43.7656 c 0
 106.219 36.1309 112.428 29.9531 120.062 29.9531 c 0
 127.697 29.9531 133.875 36.1309 133.875 43.7656 c 0
 133.875 51.4004 127.697 57.6094 120.062 57.6094 c 0
EndSplineSet
Validated: 1
EndChar

StartChar: quotedbl
Encoding: 34 34 74
Width: 343
VWidth: -80
Flags: W
HStem: 548.844 244.312<58.2456 134.101 209.558 285.414>
VStem: 52 88.5938<555.211 786.789> 203.312 88.5938<555.211 786.789>
LayerCount: 2
Fore
SplineSet
95.875 793.156 m 0
 120.546 793.156 140.566 773.503 140.594 749.25 c 2
 140.594 592.75 l 2
 140.594 568.498 120.546 548.844 95.875 548.844 c 0
 71.1865 548.844 52 568.538 52 592.812 c 2
 52 749.188 l 2
 52 773.462 71.1865 793.156 95.875 793.156 c 0
247.188 793.156 m 0
 271.858 793.156 291.879 773.503 291.906 749.25 c 2
 291.906 592.75 l 2
 291.906 568.498 271.858 548.844 247.188 548.844 c 0
 222.499 548.844 203.312 568.538 203.312 592.812 c 2
 203.312 749.188 l 2
 203.312 773.462 222.5 793.156 247.188 793.156 c 0
EndSplineSet
Validated: 1
EndChar

StartChar: asciitilde
Encoding: 126 126 75
Width: 493
VWidth: -285
Flags: W
HStem: 448.229 88.6963<293.546 360.91> 568.02 88.7188<132.736 200.083>
VStem: 40 88.7178<470.621 562.275> 364.921 88.7285<542.457 634.077>
LayerCount: 2
Fore
SplineSet
289.43 564.69 m 0
 294.313 547.869 309.719 536.926 326.419 536.926 c 0
 329.953 536.926 333.545 537.416 337.108 538.444 c 0
 353.961 543.309 364.921 558.68 364.921 575.381 c 0
 364.921 578.895 364.436 582.466 363.419 586.012 c 0
 362.223 590.154 361.65 594.324 361.65 598.42 c 0
 361.65 617.381 373.921 634.741 393.428 640.372 c 0
 397.639 641.588 401.884 642.167 406.054 642.167 c 0
 425.356 642.167 443.076 629.76 448.629 610.605 c 0
 452.028 598.825 453.649 586.955 453.649 575.282 c 0
 453.649 520.104 417.44 469.323 361.762 453.253 c 0
 349.977 449.852 338.095 448.229 326.406 448.229 c 0
 271.187 448.229 220.274 484.419 204.205 540.093 c 0
 199.335 556.968 183.916 568.02 167.185 568.02 c 0
 163.672 568.02 160.102 567.532 156.559 566.51 c 0
 139.7 561.645 128.718 546.181 128.718 529.444 c 0
 128.718 525.91 129.208 522.319 130.235 518.76 c 0
 131.429 514.624 132 510.458 132 506.365 c 0
 132 487.374 119.702 469.94 100.188 464.309 c 0
 95.9844 463.095 91.748 462.517 87.5859 462.517 c 0
 68.2793 462.517 50.5625 474.954 45.0088 494.115 c 0
 41.6162 505.867 40 517.718 40 529.379 c 0
 40 584.65 76.3184 635.659 132.025 651.737 c 0
 143.761 655.124 155.589 656.738 167.224 656.738 c 0
 222.448 656.738 273.328 620.379 289.43 564.69 c 0
EndSplineSet
Validated: 1
EndChar

StartChar: quotesingle
Encoding: 39 39 76
Width: 192
VWidth: -80
Flags: W
HStem: 550.837 244.326<58.2461 134.103>
VStem: 52 88.5957<557.204 788.796>
LayerCount: 2
Fore
SplineSet
140.596 594.759 m 2
 140.596 570.506 120.547 550.837 95.876 550.837 c 0
 71.1885 550.837 52 570.531 52 594.806 c 2
 52 751.195 l 2
 52 775.469 71.1885 795.163 95.876 795.163 c 0
 120.547 795.163 140.568 775.494 140.596 751.242 c 2
 140.596 594.759 l 2
EndSplineSet
Validated: 1
EndChar

StartChar: numbersign
Encoding: 35 35 77
Width: 707
VWidth: -185
Flags: W
HStem: 161.703 88.5938<52.3676 206.871 298.538 409.119 500.788 655.297> 359.703 88.5938<52.3676 206.871 298.538 409.119 500.788 655.297>
VStem: 208.406 88.5938<5.66444 160.166 251.835 358.166 449.835 604.336> 410.656 88.5938<5.66444 160.166 251.835 358.166 449.835 604.336>
LayerCount: 2
Fore
SplineSet
253.125 610.703 m 0
 277.813 610.703 297 591.009 297 566.734 c 2
 297 477.922 l 2
 297 463.962 312.665 448.297 326.625 448.297 c 2
 381.031 448.297 l 2
 394.991 448.297 410.656 463.962 410.656 477.922 c 2
 410.656 566.766 l 2
 410.656 591.018 430.704 610.703 455.375 610.703 c 0
 480.062 610.703 499.25 591.009 499.25 566.734 c 2
 499.25 477.922 l 2
 499.25 463.962 514.915 448.297 528.875 448.297 c 2
 617.719 448.297 l 2
 641.993 448.297 661.656 429.11 661.656 404.422 c 0
 661.656 379.751 642.002 359.703 617.75 359.703 c 2
 528.875 359.703 l 2
 514.913 359.703 499.25 344.071 499.25 330.109 c 2
 499.25 279.922 l 2
 499.25 265.962 514.915 250.297 528.875 250.297 c 2
 617.719 250.297 l 2
 641.993 250.297 661.656 231.11 661.656 206.422 c 0
 661.656 181.751 642.002 161.703 617.75 161.703 c 2
 528.875 161.703 l 2
 514.913 161.703 499.25 146.071 499.25 132.109 c 2
 499.25 43.2656 l 2
 499.25 18.9912 480.062 -0.703125 455.375 -0.703125 c 0
 430.704 -0.703125 410.656 18.9512 410.656 43.2031 c 2
 410.656 132.078 l 2
 410.656 146.042 394.995 161.703 381.031 161.703 c 2
 326.625 161.703 l 2
 312.663 161.703 297 146.071 297 132.109 c 2
 297 43.2656 l 2
 297 18.9912 277.813 -0.703125 253.125 -0.703125 c 0
 228.454 -0.703125 208.406 18.9512 208.406 43.2031 c 2
 208.406 132.078 l 2
 208.406 146.042 192.776 161.703 178.812 161.703 c 2
 89.9375 161.703 l 2
 65.6855 161.703 46 181.751 46 206.422 c 0
 46 231.11 65.6943 250.297 89.9688 250.297 c 2
 178.812 250.297 l 2
 192.772 250.297 208.406 265.962 208.406 279.922 c 2
 208.406 330.078 l 2
 208.406 344.042 192.776 359.703 178.812 359.703 c 2
 89.9375 359.703 l 2
 65.6855 359.703 46 379.751 46 404.422 c 0
 46 429.11 65.6943 448.297 89.9688 448.297 c 2
 178.812 448.297 l 2
 192.772 448.297 208.406 463.962 208.406 477.922 c 2
 208.406 566.766 l 2
 208.406 591.018 228.454 610.703 253.125 610.703 c 0
326.625 359.703 m 2
 312.663 359.703 297 344.071 297 330.109 c 2
 297 279.922 l 2
 297 265.962 312.665 250.297 326.625 250.297 c 2
 381.031 250.297 l 2
 394.991 250.297 410.656 265.962 410.656 279.922 c 2
 410.656 330.078 l 2
 410.656 344.042 394.995 359.703 381.031 359.703 c 2
 326.625 359.703 l 2
EndSplineSet
Validated: 1
EndChar

StartChar: dollar
Encoding: 36 36 78
Width: 576
VWidth: -80
Flags: W
HStem: -0.5625 88.6875<269.25 310.656> 709.156 88.7188<269.25 310.656>
VStem: 40 88.7188<539.471 667.31> 59.6875 88.625<140.04 243.954> 180.656 88.5938<-41.7887 -0.5625 125.188 358.594 512.094 694.375 797.875 839.789> 310.656 88.5938<-41.7887 -0.5625 104.812 283.219 436.969 668.719 797.875 839.789> 428.531 88.625<553.359 657.616> 448.125 88.7188<130.623 257.735>
LayerCount: 2
Fore
SplineSet
224.531 846.156 m 0xec
 249.202 846.156 269.223 826.503 269.25 802.25 c 2
 269.25 797.875 l 1
 310.656 797.875 l 1
 310.656 802.188 l 2
 310.656 826.462 329.844 846.156 354.531 846.156 c 0
 379.202 846.156 399.223 826.503 399.25 802.25 c 2
 399.25 778.656 l 1
 468.086 746.256 517.302 676.426 517.156 596.688 c 2
 517.156 590.906 l 2
 517.189 566.661 497.948 547 473.281 547 c 0
 448.621 547 428.576 566.668 428.531 590.906 c 0xee
 428.531 620.696 417.465 647.914 399.25 668.719 c 1
 399.25 385.812 l 1
 441.906 361.188 l 2
 497.997 327.652 536.844 266.15 536.844 194.031 c 0
 536.844 106.443 478.901 30.208 399.25 6.8125 c 1
 399.25 -4.25 l 2
 399.25 -28.502 379.202 -48.1562 354.531 -48.1562 c 0
 329.843 -48.1562 310.656 -28.4619 310.656 -4.1875 c 2
 310.656 -0.5625 l 1
 269.25 -0.5625 l 1
 269.25 -4.25 l 2
 269.25 -28.502 249.202 -48.1562 224.531 -48.1562 c 0
 199.843 -48.1562 180.656 -28.4619 180.656 -4.1875 c 2
 180.656 17.2188 l 1
 135.479 37.5791 59.7637 92.8574 59.6875 206.469 c 0
 59.6875 230.686 78.917 250.312 103.562 250.312 c 0
 128.223 250.312 148.268 230.645 148.312 206.406 c 0xdd
 148.312 174.967 160.607 146.381 180.656 125.188 c 1
 180.656 409.719 l 1
 134.938 436.125 l 2
 78.8457 469.656 40 531.163 40 603.281 c 0
 40 691.993 99.4248 769.06 180.656 791.375 c 1
 180.656 802.188 l 2
 180.656 826.462 199.844 846.156 224.531 846.156 c 0xec
310.188 709.188 m 2
 296.542 709.188 282.896 709.165 269.25 709.156 c 1
 269.25 460.875 l 1
 310.656 436.969 l 1
 310.656 709.188 l 1
 310.188 709.188 l 2
180.656 694.375 m 1
 149.568 675.923 128.719 642.033 128.719 603.281 c 0
 128.719 583.879 133.744 542.531 180.656 512.094 c 1
 180.656 694.375 l 1
269.25 358.594 m 1
 269.25 88.125 l 1
 283.052 88.126 296.854 88.1475 310.656 88.1562 c 1
 310.656 334.688 l 1
 269.25 358.594 l 1
399.25 283.219 m 1
 399.25 104.812 l 1
 428.627 123.635 448.125 156.574 448.125 194.031 c 0xcd
 448.125 209.627 444.308 253.808 399.25 283.219 c 1
EndSplineSet
Validated: 33
EndChar

StartChar: cent
Encoding: 162 162 79
Width: 449
VWidth: -80
Flags: W
VStem: 40 88.75<142.165 276.467> 207.125 88.5938<-71.5387 11.3442 101.25 316.969 407.245 489.539>
LayerCount: 2
Fore
SplineSet
251 495.906 m 0
 275.671 495.906 295.691 476.252 295.719 452 c 2
 295.719 410.562 l 1
 333.383 401.563 367.089 382.303 393.344 355.625 c 0
 400.698 348.151 403.436 339.405 403.436 330.912 c 0
 403.436 317.622 396.732 304.951 390.531 298.75 c 0
 383.649 291.868 368.467 284.104 353.652 284.104 c 0
 345.353 284.104 337.168 286.542 330.625 292.938 c 0
 320.518 302.816 308.73 311.025 295.719 316.969 c 1
 295.719 101.25 l 1
 308.927 107.131 320.788 115.394 330.625 125.688 c 0
 335.892 131.199 344.498 134.043 353.877 134.043 c 0
 364.717 134.043 376.589 130.244 385.531 122.375 c 0
 395.629 113.489 401.762 99.0928 401.762 85.7842 c 0
 401.762 77.1084 399.155 68.8945 393.344 62.9688 c 0
 367.128 36.2393 333.403 17.0195 295.719 8.03125 c 1
 295.719 -34 l 2
 295.719 -58.252 275.671 -77.9062 251 -77.9062 c 0
 226.312 -77.9062 207.125 -58.2119 207.125 -33.9375 c 2
 207.125 6.1875 l 1
 111.932 24.7979 40 108.702 40 209.312 c 0
 40 309.923 111.932 393.805 207.125 412.406 c 1
 207.125 451.938 l 2
 207.125 476.212 226.312 495.906 251 495.906 c 0
207.125 320.688 m 1
 161.451 304.309 128.75 260.601 128.75 209.312 c 0
 128.75 158.026 161.455 114.35 207.125 97.9688 c 1
 207.125 320.688 l 1
EndSplineSet
Validated: 1
EndChar

StartChar: slash
Encoding: 47 47 80
Width: 590
VWidth: -80
Flags: W
HStem: -2.34668 21G<86.7754 98.2397> 776.347 20G<492.537 503.85>
LayerCount: 2
Fore
SplineSet
128.696 19.416 m 2
 120.623 5.43359 105.872 -2.34668 90.6074 -2.34668 c 0
 82.9434 -2.34668 75.1494 -0.385742 68.0078 3.73828 c 0
 53.7598 11.9639 46 26.543 46 41.5762 c 0
 46 49.1016 47.9443 56.7412 51.9941 63.7539 c 2
 462.189 774.232 l 2
 470.337 788.346 484.942 796.347 500.132 796.347 c 0
 507.568 796.347 515.145 794.43 522.172 790.372 c 0
 536.613 782.034 544.723 766.974 544.723 751.599 c 0
 544.723 744.229 542.859 736.785 538.938 729.976 c 2
 128.696 19.416 l 2
EndSplineSet
Validated: 1
EndChar

StartChar: ampersand
Encoding: 38 38 81
Width: 576
VWidth: -285
Flags: W
HStem: -3.23438 88.6875<192.279 339.145> 708.609 88.625<181.979 303.486>
VStem: 40 88.6875<149.033 295.064> 54.8438 88.625<548.166 670.103> 341.969 88.625<547.768 670.103>
LayerCount: 2
Fore
SplineSet
242.75 797.234 m 0xd8
 346.468 797.234 430.594 713.077 430.594 609.359 c 0
 430.594 586.561 426.545 512.029 352.688 456.984 c 2
 275.125 399.328 l 1
 401.25 229.547 l 1
 399.3 263.776 384.486 295.002 361.969 317.922 c 0
 353.487 326.563 349.106 337.883 349.106 349.212 c 0
 349.106 360.089 353.145 370.976 361.469 379.516 c 0
 370.256 388.529 381.979 393.003 393.671 393.003 c 0
 404.528 393.003 415.357 389.146 423.781 381.484 c 1
 464.515 340.743 490.188 284.02 490.188 221.891 c 0
 490.188 190.683 483.836 160.952 472.344 133.922 c 1
 521.875 67.2344 l 2
 527.784 59.2812 530.672 50.0322 530.672 40.8691 c 0
 530.672 27.584 524.603 14.4795 512.875 5.76562 c 0
 504.755 -0.267578 495.29 -3.18359 485.948 -3.18359 c 0
 472.51 -3.18359 459.327 2.85254 450.781 14.3281 c 2
 418.75 57.4219 l 1
 378.522 19.8037 324.509 -3.23438 265.125 -3.23438 c 0
 140.867 -3.23438 40 97.6318 40 221.891 c 0xe8
 40 291.288 71.8066 357.522 128.812 400.984 c 2
 151.156 417.609 l 1
 93.4062 495.297 l 2
 69.7012 526.752 54.8438 566.976 54.8438 609.359 c 0
 54.8438 713.077 139.032 797.234 242.75 797.234 c 0xd8
242.719 708.609 m 0
 187.927 708.609 143.469 664.12 143.469 609.328 c 0xd8
 143.469 603.631 142.383 580.673 161.812 551.922 c 1
 222.25 470.453 l 1
 299.844 528.078 l 2
 327.707 549.697 341.969 576.828 341.969 609.328 c 0
 341.969 664.12 297.511 708.609 242.719 708.609 c 0
204 346.453 m 1
 184.625 332.047 l 2
 149.109 305.657 128.688 265.935 128.688 221.859 c 0xe8
 128.688 146.556 189.821 85.4531 265.125 85.4531 c 0
 304.738 85.4531 340.395 102.37 365.312 129.359 c 1
 204 346.453 l 1
EndSplineSet
Validated: 33
EndChar

StartChar: question
Encoding: 63 63 82
Width: 493
VWidth: -80
Flags: W
HStem: -33.6094 62.2188<232.398 259.681> 56.2656 62.2188<232.398 259.681> 706.922 88.6875<179.596 314.408>
VStem: 40 88.75<517.174 656.073> 170 62.2188<28.7888 56.0711> 202.188 88.5947<182.914 386.878> 259.875 62.25<28.7887 56.0712> 365.282 88.6865<520.12 656.073>
LayerCount: 2
Fore
SplineSet
56.5469 507.594 m 0xf5
 46.0977 532.324 40 560.153 40 588.672 c 0
 40 702.925 132.747 795.609 247 795.609 c 0
 361.253 795.609 453.969 702.925 453.969 588.672 c 0
 453.969 502.408 400.902 430.843 331.625 399.609 c 0
 309.338 390.169 290.844 366.714 290.844 338.453 c 2
 290.782 220.484 l 2
 290.782 196.231 270.733 176.547 246.062 176.547 c 0
 221.375 176.547 202.188 196.241 202.188 220.516 c 2
 202.188 338.516 l 2
 202.188 402.695 240.016 455.182 292.938 479.641 c 1
 335.1 497.699 365.282 538.292 365.282 588.672 c 0
 365.281 653.959 312.287 706.922 247 706.922 c 0
 181.713 706.922 128.75 653.959 128.75 588.672 c 0
 128.75 572.36 132.052 556.797 138.032 542.656 c 0
 140.437 536.981 141.583 531.099 141.583 525.322 c 0
 141.583 508.365 131.696 492.326 114.688 485.172 c 0
 109.071 482.81 103.233 481.698 97.4834 481.698 c 0
 80.3506 481.698 63.9922 491.562 56.5469 507.594 c 0xf5
246.032 118.484 m 0
 288.021 118.484 322.125 84.4111 322.125 42.4219 c 0
 322.125 0.432617 288.021 -33.6094 246.032 -33.6094 c 0
 204.042 -33.6094 170 0.433594 170 42.4219 c 0xfb
 170 84.4102 204.042 118.484 246.032 118.484 c 0
246.062 56.2656 m 0
 238.428 56.2656 232.219 50.0566 232.219 42.4219 c 0
 232.219 34.7871 238.428 28.6094 246.062 28.6094 c 0
 253.698 28.6094 259.875 34.7871 259.875 42.4219 c 0
 259.875 50.0566 253.698 56.2656 246.062 56.2656 c 0
EndSplineSet
Validated: 1
EndChar

StartChar: at
Encoding: 64 64 83
Width: 671
VWidth: -80
Flags: W
HStem: -2.29688 88.7188<260.931 410.961> 241.422 88.7188<299.909 370.049> 490.203 88.7188<299.909 370.763> 707.578 88.7188<260.931 410.753>
VStem: 40 88.6885<261.076 532.948> 194.875 88<346.613 473.731> 386.875 88.5938<344.906 475.538> 542.969 88.6875<298.252 532.949>
LayerCount: 2
Fore
SplineSet
631.656 397.016 m 0
 631.656 177.586 499.662 -2.29688 335.844 -2.29688 c 0
 172.557 -2.29688 40 176.585 40 397.016 c 0
 40 617.446 172.557 796.297 335.844 796.297 c 0
 499.129 796.297 631.656 617.446 631.656 397.016 c 0
471.531 455.859 m 0
 471.531 446.729 475.459 419.335 475.469 410.203 c 2
 475.469 307.078 l 2
 475.469 291.138 488.404 278.203 504.344 278.203 c 0
 520.284 278.203 533.219 291.138 533.219 307.078 c 1
 534.125 307.078 l 1
 539.866 335.551 542.969 365.745 542.969 397.016 c 0
 542.969 568.474 450.168 707.578 335.844 707.578 c 0
 221.518 707.578 128.688 568.473 128.688 397.013 c 0
 128.688 225.556 221.52 86.4219 335.844 86.4219 c 0
 397.302 86.4219 452.524 126.63 490.469 190.453 c 1
 448.743 195.364 413.694 222.127 397.125 259.016 c 1
 378.371 247.766 357.233 241.422 334.875 241.422 c 0
 257.595 241.422 194.875 317.021 194.875 410.172 c 0
 194.875 503.322 257.595 578.922 334.875 578.922 c 0
 366.528 578.922 395.729 566.235 419.188 544.859 c 1
 427.554 553.617 439.136 558.104 450.837 558.104 c 0
 462.273 558.104 473.823 553.818 482.594 545.047 c 0
 491.285 536.355 495.577 525.158 495.577 513.985 c 0
 495.577 502.719 491.212 491.478 482.594 482.859 c 0
 475.181 475.446 471.532 465.668 471.531 455.859 c 0
386.875 410.172 m 0
 386.875 454.732 363.912 490.203 334.875 490.203 c 0
 306.171 490.203 282.875 454.354 282.875 410.172 c 0
 282.875 365.99 306.171 330.141 334.875 330.141 c 0
 363.572 330.141 386.864 365.974 386.875 410.172 c 0
EndSplineSet
Validated: 1
EndChar

StartChar: percent
Encoding: 37 37 84
Width: 719
VWidth: -80
Flags: W
HStem: -2.46875 89<476.832 571.809> 218.719 88.7188<476.832 571.809> 486.562 88.7188<147.471 242.439> 707.469 89<147.471 242.439>
VStem: 40 88.7178<593.879 688.856> 260.875 89<593.879 688.856> 369.375 89<105.144 200.121> 590.562 88.7188<105.144 200.121>
LayerCount: 2
Fore
SplineSet
195.093 796.469 m 0
 280.623 796.469 349.875 726.905 349.875 641.375 c 0
 349.875 555.845 280.623 486.562 195.093 486.562 c 0
 109.563 486.562 40 555.845 40 641.375 c 0
 40 726.905 109.563 796.469 195.093 796.469 c 0
526.218 774.125 m 2
 535.385 790.001 548.76 796.507 562.098 796.507 c 0
 585.627 796.507 609.041 776.262 609.041 751.494 c 0
 609.041 744.528 607.189 737.206 602.968 729.875 c 2
 192.718 19.3125 l 2
 184.644 5.32812 169.889 -2.45801 154.622 -2.45801 c 0
 146.961 -2.45801 139.171 -0.49707 132.031 3.625 c 0
 117.787 11.8486 110.034 26.4287 110.034 41.4619 c 0
 110.034 48.9932 111.98 56.6396 116.031 63.6562 c 2
 526.218 774.125 l 2
194.875 707.469 m 0
 158.392 707.469 128.718 677.796 128.718 641.312 c 0
 128.718 604.829 158.392 575.281 194.875 575.281 c 0
 231.358 575.281 260.875 604.829 260.875 641.312 c 0
 260.875 677.795 231.358 707.469 194.875 707.469 c 0
524.188 307.438 m 0
 609.717 307.438 679.281 238.155 679.281 152.625 c 0
 679.281 67.0947 609.717 -2.46875 524.188 -2.46875 c 0
 438.657 -2.46875 369.375 67.0947 369.375 152.625 c 0
 369.375 238.155 438.657 307.438 524.188 307.438 c 0
524.406 218.719 m 0
 487.923 218.719 458.375 189.171 458.375 152.688 c 0
 458.375 116.205 487.923 86.5312 524.406 86.5312 c 0
 560.889 86.5312 590.562 116.204 590.562 152.688 c 0
 590.562 189.171 560.889 218.719 524.406 218.719 c 0
EndSplineSet
Validated: 1
EndChar

StartChar: backslash
Encoding: 92 92 85
Width: 590
VWidth: -80
Flags: W
HStem: 778.347 20G<86.8723 98.1852>
LayerCount: 2
Fore
SplineSet
462.026 21.416 m 2
 51.7852 731.976 l 2
 47.8633 738.785 46.0002 746.228 46.0002 753.598 c 0
 46.0002 768.974 54.109 784.034 68.5508 792.372 c 0
 75.5779 796.429 83.1542 798.347 90.5904 798.347 c 0
 105.78 798.347 120.385 790.346 128.533 776.232 c 2
 538.729 65.7539 l 2
 542.778 58.7411 544.722 51.1018 544.722 43.5762 c 0
 544.722 28.5433 536.962 13.9641 522.715 5.73828 c 0
 515.573 1.61468 507.779 -0.347124 500.115 -0.347124 c 0
 484.85 -0.347124 470.099 7.43386 462.026 21.416 c 2
EndSplineSet
Validated: 1
EndChar

StartChar: bracketleft
Encoding: 91 91 86
Width: 288
VWidth: -80
Flags: W
HStem: -127.688 88.5938<144.494 235.913> 833.094 88.5938<144.494 235.913>
VStem: 52 88.6562<-32.3343 826.334>
LayerCount: 2
Fore
SplineSet
179.312 921.688 m 2
 198.344 921.688 l 2
 222.596 921.66 242.281 901.64 242.281 876.969 c 0
 242.281 852.28 222.586 833.094 198.312 833.094 c 2
 179.281 833.094 l 2
 158.029 833.094 140.656 815.783 140.656 794.531 c 2
 140.656 -0.53125 l 2
 140.656 -21.7832 158.029 -39.0938 179.281 -39.0938 c 2
 198.312 -39.0938 l 2
 222.586 -39.0938 242.281 -58.2803 242.281 -82.9688 c 0
 242.281 -107.64 222.596 -127.66 198.344 -127.688 c 2
 179.312 -127.688 l 2
 109.099 -127.688 52 -70.7754 52 -0.5625 c 2
 52 794.562 l 2
 52 864.775 109.099 921.688 179.312 921.688 c 2
EndSplineSet
Validated: 1
EndChar

StartChar: bracketright
Encoding: 93 93 87
Width: 288
VWidth: -80
Flags: W
HStem: -127.688 88.5938<52.3678 143.787> 833.094 88.5938<52.3678 143.787>
VStem: 147.625 88.6562<-32.3343 826.334>
LayerCount: 2
Fore
SplineSet
108.969 921.688 m 2
 179.182 921.688 236.281 864.775 236.281 794.562 c 2
 236.281 -0.5625 l 2
 236.281 -70.7754 179.182 -127.688 108.969 -127.688 c 2
 89.9375 -127.688 l 2
 65.6846 -127.66 46 -107.64 46 -82.9688 c 0
 46 -58.2803 65.6953 -39.0938 89.9688 -39.0938 c 2
 109 -39.0938 l 2
 130.252 -39.0938 147.625 -21.7832 147.625 -0.53125 c 2
 147.625 794.531 l 2
 147.625 815.783 130.252 833.094 109 833.094 c 2
 89.9688 833.094 l 2
 65.6953 833.094 46 852.28 46 876.969 c 0
 46 901.64 65.6846 921.66 89.9375 921.688 c 2
 108.969 921.688 l 2
EndSplineSet
Validated: 1
EndChar

StartChar: asciicircum
Encoding: 94 94 88
Width: 612
VWidth: -80
Flags: W
HStem: 706.24 88.6875<272.44 340.072>
LayerCount: 2
Fore
SplineSet
340.793 685.162 m 2
 330.545 703.559 315.123 706.24 306.512 706.24 c 0
 289.828 706.24 277.845 696.607 270.706 682.443 c 2
 129.917 402.99 l 2
 122.34 387.992 107.284 378.851 90.9424 378.851 c 0
 84.1016 378.851 77.0361 380.452 70.1982 383.896 c 0
 54.6963 391.708 46 406.987 46 422.906 c 0
 46 429.627 47.5498 436.461 50.792 442.896 c 2
 190.823 720.771 l 1
 213.041 769.079 257.698 794.928 306.573 794.928 c 0
 351.912 794.928 391.703 771.201 414.198 735.49 c 1
 562.073 442.896 l 2
 565.316 436.461 566.866 429.626 566.866 422.905 c 0
 566.866 406.986 558.17 391.708 542.668 383.896 c 0
 536.12 380.598 529.155 379.034 522.312 379.034 c 0
 506.132 379.034 490.636 387.777 482.948 402.99 c 2
 340.793 685.162 l 2
EndSplineSet
Validated: 1
EndChar

StartChar: grave
Encoding: 96 96 89
Width: 192
VWidth: -80
Flags: W
HStem: 550.837 244.326<58.2461 134.103>
VStem: 52 88.5957<557.204 788.796>
LayerCount: 2
Fore
SplineSet
140.596 594.759 m 2
 140.596 570.506 120.547 550.837 95.876 550.837 c 0
 71.1885 550.837 52 570.531 52 594.806 c 2
 52 751.195 l 2
 52 775.469 71.1885 795.163 95.876 795.163 c 0
 120.547 795.163 140.568 775.494 140.596 751.242 c 2
 140.596 594.759 l 2
EndSplineSet
Validated: 1
EndChar

StartChar: parenleft
Encoding: 40 40 90
Width: 300
VWidth: -80
Flags: W
VStem: 52 88.6875<145.109 635.659>
LayerCount: 2
Fore
SplineSet
232.53 868.733 m 0
 235.893 870.675 241.756 872.106 248.58 872.106 c 0
 262.772 872.106 281.127 865.918 289.812 845.265 c 0
 292.104 839.817 293.16 834.377 293.16 829.075 c 0
 293.16 812.231 282.498 796.778 266.875 786.89 c 0
 187.791 736.832 140.688 620.138 140.688 500.952 c 2
 140.688 279.858 l 2
 140.688 160.52 187.658 44.0635 266.875 -6.0791 c 0
 285.41 -17.8115 293.062 -33.4189 293.062 -48.0742 c 0
 293.062 -70.8857 274.523 -91.3926 249.629 -91.3926 c 0
 208.956 -91.2646 52 33.8936 52 279.858 c 2
 52 500.952 l 2
 52 648.064 114.661 800.552 232.53 868.733 c 0
EndSplineSet
Validated: 1
EndChar

StartChar: parenright
Encoding: 41 41 91
Width: 300
VWidth: -80
Flags: W
VStem: 159.473 88.6875<146.253 635.702>
LayerCount: 2
Fore
SplineSet
10.3477 845.265 m 0
 19.0254 865.898 37.3965 872.092 51.585 872.092 c 0
 58.4199 872.092 64.2852 870.654 67.6289 868.702 c 0
 185.486 800.635 248.16 648.052 248.16 500.952 c 2
 248.16 279.858 l 2
 248.16 37.2275 92.917 -91.2598 50.5205 -91.3926 c 0
 25.1875 -91.3926 7.41016 -70.9023 7.41016 -48.2607 c 0
 7.41016 -33.3984 15.0713 -17.6084 33.2852 -6.0791 c 0
 112.369 43.9785 159.473 160.672 159.473 279.858 c 2
 159.473 500.952 l 2
 159.473 620.29 112.502 736.748 33.2852 786.89 c 0
 17.6621 796.778 7 812.231 7 829.075 c 0
 7 834.377 8.05664 839.817 10.3477 845.265 c 0
EndSplineSet
Validated: 1
EndChar

StartChar: bar
Encoding: 124 124 92
Width: 200
VWidth: -80
Flags: W
HStem: 775.64 20G<87.5322 112.211>
VStem: 56 88.5947<5.68006 789.272>
LayerCount: 2
Fore
SplineSet
99.876 795.64 m 0
 124.547 795.64 144.568 775.971 144.595 751.718 c 2
 144.595 43.2344 l 2
 144.595 18.9824 124.547 -0.6875 99.876 -0.6875 c 0
 75.1885 -0.6875 56 19.0068 56 43.2812 c 2
 56 751.671 l 2
 56 775.945 75.1885 795.64 99.876 795.64 c 0
EndSplineSet
Validated: 1
EndChar

StartChar: braceleft
Encoding: 123 123 93
Width: 348
VWidth: -80
Flags: W
HStem: -132.875 88.5938<283.432 401.914> 294.25 88.6875<133.758 184.3> 407.062 88.6875<133.758 184.3> 834.281 88.5938<283.432 401.914>
VStem: 190.938 88.6553<-37.5218 289.896 500.104 827.522>
LayerCount: 2
Fore
SplineSet
43 394.812 m 2
 43 395.188 l 2
 43.1367 450.812 88.4072 496 144.063 496 c 0
 145.805 496 151.805 495.75 152.469 495.75 c 0
 173.721 495.75 190.938 512.967 190.938 534.219 c 2
 190.938 795.75 l 2
 190.938 865.963 248.037 922.875 318.25 922.875 c 2
 364.344 922.875 l 2
 388.596 922.848 408.282 902.827 408.282 878.156 c 0
 408.282 853.468 388.587 834.281 364.313 834.281 c 2
 318.219 834.281 l 2
 296.967 834.281 279.594 816.971 279.594 795.719 c 2
 279.594 534.969 l 2
 279.598 464.756 222.744 407.062 152.532 407.062 c 0
 150.063 407.062 147.626 407.281 145.188 407.281 c 2
 144.469 407.281 l 2
 137.688 407.281 132.157 401.781 132.157 395 c 0
 132.157 388.219 137.688 382.719 144.469 382.719 c 2
 145.188 382.719 l 2
 147.626 382.719 150.063 382.938 152.532 382.938 c 0
 222.744 382.938 279.598 325.244 279.594 255.031 c 2
 279.594 -5.71875 l 2
 279.594 -26.9707 296.967 -44.2812 318.219 -44.2812 c 2
 364.313 -44.2812 l 2
 388.587 -44.2812 408.282 -63.4678 408.282 -88.1562 c 0
 408.282 -112.827 388.596 -132.848 364.344 -132.875 c 2
 318.25 -132.875 l 2
 248.037 -132.875 190.938 -75.9629 190.938 -5.75 c 2
 190.938 255.781 l 2
 190.938 277.033 173.721 294.25 152.469 294.25 c 0
 151.805 294.25 145.805 294 144.063 294 c 0
 88.4072 294 43.1367 339.188 43 394.812 c 2
EndSplineSet
Validated: 33
EndChar

StartChar: braceright
Encoding: 125 125 94
Width: 348
VWidth: -80
Flags: W
HStem: -132.875 88.5938<-53.6322 64.8502> 294.25 88.6875<163.982 214.524> 407.062 88.6875<163.982 214.524> 834.281 88.5938<-53.6322 64.8502>
VStem: 68.6885 88.6553<-37.5218 289.896 500.104 827.522>
LayerCount: 2
Fore
SplineSet
305.282 395.188 m 2
 305.282 394.812 l 2
 305.145 339.188 259.875 294 204.219 294 c 0
 202.477 294 196.477 294.25 195.813 294.25 c 0
 174.561 294.25 157.344 277.033 157.344 255.781 c 2
 157.344 -5.75 l 2
 157.344 -75.9629 100.245 -132.875 30.0322 -132.875 c 2
 -16.0625 -132.875 l 2
 -40.3145 -132.848 -60 -112.827 -60 -88.1562 c 0
 -60 -63.4678 -40.3047 -44.2812 -16.0312 -44.2812 c 2
 30.0625 -44.2812 l 2
 51.3154 -44.2812 68.6885 -26.9707 68.6885 -5.71875 c 2
 68.6885 255.031 l 2
 68.6836 325.244 125.538 382.938 195.75 382.938 c 0
 198.219 382.938 200.656 382.719 203.094 382.719 c 2
 203.813 382.719 l 2
 210.594 382.719 216.125 388.219 216.125 395 c 0
 216.125 401.781 210.594 407.281 203.813 407.281 c 2
 203.094 407.281 l 2
 200.656 407.281 198.219 407.062 195.75 407.062 c 0
 125.538 407.062 68.6836 464.756 68.6885 534.969 c 2
 68.6885 795.719 l 2
 68.6885 816.971 51.3154 834.281 30.0625 834.281 c 2
 -16.0312 834.281 l 2
 -40.3047 834.281 -60 853.468 -60 878.156 c 0
 -60 902.827 -40.3145 922.848 -16.0625 922.875 c 2
 30.0322 922.875 l 2
 100.245 922.875 157.344 865.963 157.344 795.75 c 2
 157.344 534.219 l 2
 157.344 512.967 174.561 495.75 195.813 495.75 c 0
 196.477 495.75 202.477 496 204.219 496 c 0
 259.875 496 305.145 450.812 305.282 395.188 c 2
EndSplineSet
Validated: 33
EndChar

StartChar: less
Encoding: 60 60 95
Width: 497
VWidth: -85
Flags: W
VStem: 40 88.7178<360.859 434.716>
LayerCount: 2
Fore
SplineSet
78.0146 306.89 m 2
 54.9854 329.911 40 362.252 40 397.362 c 0
 40 432.467 54.8398 464.808 77.8896 487.858 c 2
 376.25 786.202 l 2
 384.895 794.847 396.13 799.208 407.375 799.208 c 0
 418.527 799.208 429.688 794.919 438.343 786.265 c 0
 447.17 777.438 451.599 765.885 451.599 754.402 c 0
 451.599 743.192 447.377 732.049 438.905 723.577 c 2
 140.108 424.749 l 2
 133.129 417.769 128.718 408.047 128.718 397.421 c 0
 128.718 386.796 133.133 377.132 140.108 370.171 c 2
 438.905 71.3584 l 2
 447.377 62.8867 451.599 51.752 451.599 40.5488 c 0
 451.599 29.0752 447.17 17.5293 438.343 8.70215 c 0
 429.667 0.0263672 418.518 -4.25 407.39 -4.25 c 0
 396.126 -4.25 384.884 0.130859 376.25 8.76465 c 2
 78.0146 306.89 l 2
EndSplineSet
Validated: 1
EndChar

StartChar: greater
Encoding: 62 62 96
Width: 497
VWidth: -85
Flags: W
VStem: 368.933 88.7178<360.859 434.716>
LayerCount: 2
Fore
SplineSet
419.636 306.89 m 2
 121.4 8.76465 l 2
 112.767 0.130859 101.525 -4.25 90.2617 -4.25 c 0
 79.1328 -4.25 67.9834 0.0263672 59.3076 8.70215 c 0
 50.4805 17.5293 46.0518 29.0752 46.0518 40.5498 c 0
 46.0518 51.752 50.2734 62.8867 58.7441 71.3584 c 2
 357.541 370.171 l 2
 364.518 377.132 368.933 386.796 368.933 397.421 c 0
 368.933 408.047 364.521 417.769 357.541 424.749 c 2
 58.7441 723.577 l 2
 49.9102 732.412 46 743.251 46 753.934 c 0
 46 776.93 64.1211 799.203 90.248 799.203 c 0
 101.686 799.177 112.739 794.863 121.4 786.202 c 2
 419.761 487.858 l 2
 442.812 464.808 457.65 432.467 457.65 397.362 c 0
 457.65 362.252 442.665 329.911 419.636 306.89 c 2
EndSplineSet
Validated: 1
EndChar

StartChar: uncrossed_seven
Encoding: 256 -1 97
Width: 589
VWidth: -80
Flags: W
HStem: -3.17188 21G<148.406 173.085> 706.703 88.5938<52.3676 455.164>
VStem: 116.75 88.7188<3.19546 127.373> 455.969 88.5938<662.529 706.222>
LayerCount: 2
Fore
SplineSet
89.9688 795.297 m 2
 450.312 795.297 l 2
 502.376 795.297 544.562 752.954 544.562 700.891 c 0
 544.562 682.67 539.394 665.652 530.438 651.234 c 2
 210.562 101.609 l 2
 207.67 96.6426 205.469 90.0967 205.469 82.4219 c 0
 205.469 81.9922 205.539 81.5605 205.469 81.1094 c 2
 205.469 40.7344 l 2
 205.469 16.4814 185.421 -3.17188 160.75 -3.17188 c 0
 136.062 -3.17188 116.75 16.5215 116.75 40.7969 c 2
 116.75 82.4219 l 2
 116.75 104.162 121.672 125.034 131.938 142.641 c 2
 455.125 697.984 l 2
 455.612 698.765 455.969 699.861 455.969 700.984 c 0
 455.969 703.957 453.677 706.703 450.781 706.703 c 2
 89.9062 706.703 l 2
 65.6533 706.703 46 726.75 46 751.422 c 0
 46 776.109 65.6943 795.297 89.9688 795.297 c 2
EndSplineSet
Validated: 1
Comment: "." 
EndChar

StartChar: uncrossed_zero
Encoding: 257 -1 98
Width: 517
VWidth: -80
Flags: W
HStem: -3.32812 88.75<191.764 326.269> 706.766 88.6875<191.754 326.27>
VStem: 52 88.7188<136.95 655.541> 377.188 88.75<137.893 654.287>
LayerCount: 2
Fore
SplineSet
259 795.453 m 0
 373.253 795.453 465.938 702.112 465.938 587.859 c 2
 465.938 204.328 l 2
 465.938 90.0732 373.253 -3.32812 258.998 -3.32812 c 0
 145.383 -3.32812 53.0264 89.5156 52 202.891 c 1
 52 589.766 l 2
 51.9961 702.86 145.593 795.453 259 795.453 c 0
259 706.766 m 0
 193.713 706.766 140.719 653.802 140.719 588.516 c 2
 140.719 203.672 l 2
 140.719 138.384 193.713 85.4219 259.002 85.4219 c 0
 323.73 85.4219 377.188 138.336 377.188 202.859 c 2
 377.188 589.359 l 2
 377.188 653.891 323.735 706.766 259 706.766 c 0
EndSplineSet
Validated: 33
Comment: "." 
EndChar

StartChar: uncrossed_z
Encoding: 258 -1 99
Width: 507
VWidth: -80
Flags: W
HStem: -0.254883 88.625<197.344 455.039> 324.745 88.625<52.3676 309.562>
LayerCount: 2
Fore
SplineSet
89.9688 413.37 m 2
 417.438 413.37 l 2
 441.712 413.37 461.406 394.152 461.406 369.464 c 0
 461.406 344.938 442.583 331.994 439.156 328.589 c 2
 197.344 88.3701 l 1
 417.438 88.3701 l 2
 441.712 88.3701 461.406 69.1523 461.406 44.4639 c 0
 461.406 19.793 441.722 -0.227539 417.438 -0.254883 c 2
 89.9062 -0.254883 l 0
 65.6543 -0.227539 46 19.793 46 44.4639 c 0
 46 56.7109 50.8389 67.626 58.6875 75.4951 c 2
 309.562 324.745 l 1
 89.9062 324.745 l 0
 65.6543 324.772 46 344.793 46 369.464 c 0
 46 394.151 65.6943 413.37 89.9688 413.37 c 2
EndSplineSet
Validated: 1
Comment: "." 
EndChar

StartChar: uncrossed_Z
Encoding: 259 -1 100
Width: 522
VWidth: -80
Flags: W
HStem: -2.23535 88.5957<136.101 471.695> 707.642 88.5938<50.3676 384.655>
VStem: 46.875 88.5625<86.6189 130.585> 384.656 88.5938<663.251 707.064>
LayerCount: 2
Fore
SplineSet
46.875 92.0166 m 0
 46.875 108.9 51.3311 124.759 59.125 138.485 c 2
 383.938 699.048 l 2
 384.37 699.794 384.656 701.13 384.656 701.923 c 0
 384.656 704.896 382.396 707.347 379.5 707.642 c 2
 87.9062 707.642 l 0
 63.6533 707.669 44 727.689 44 752.36 c 0
 44 777.049 63.6943 796.235 87.9688 796.235 c 2
 385.062 796.235 l 2
 435.546 796.235 473.25 751.854 473.25 701.829 c 0
 473.25 682.279 467.119 665.586 459.594 652.954 c 2
 136.25 95.0791 l 2
 135.653 94.0488 135.438 93.2979 135.438 92.1104 c 0
 135.438 88.9395 138.017 86.3604 141.188 86.3604 c 2
 434.094 86.3604 l 2
 458.368 86.3604 478.062 67.1729 478.062 42.4854 c 0
 478.062 17.8145 458.408 -2.20605 434.094 -2.2334 c 2
 141.281 -2.2334 l 2
 141.038 -2.2334 140.795 -2.23535 140.552 -2.23535 c 0
 93.0205 -2.23535 46.875 36.6787 46.875 92.0166 c 0
EndSplineSet
Validated: 1
Comment: "." 
EndChar

StartChar: glyph_design_template
Encoding: 260 -1 101
Width: 814
VWidth: -405
Flags: W
HStem: -384 7<69 235 243 413 418 642> -7 5<69 235 243 413 418 642> 196 7<69 235 243 413 418 642> 401 9<69 235 243 413 418 642> 782 6<69 235 243 413 418 642>
VStem: 60 9<-377 -7 -2 196 203 401 410 782> 235 8<-377 -7 -2 196 203 401 410 782> 413 5<-377 -7 -2 196 203 401 410 782> 642 130<-377 -7 -2 196 203 401 410 782>
LayerCount: 2
Fore
SplineSet
60 788 m 1
 772 788 l 1
 772 -384 l 1
 60 -384 l 1
 60 788 l 1
69 782 m 1
 69 410 l 1
 235 410 l 1
 235 782 l 1
 69 782 l 1
243 782 m 1
 243 410 l 1
 413 410 l 1
 413 782 l 1
 243 782 l 1
418 782 m 1
 418 410 l 1
 642 410 l 1
 642 782 l 1
 418 782 l 1
69 401 m 1
 69 203 l 1
 235 203 l 1
 235 401 l 1
 69 401 l 1
243 401 m 1
 243 203 l 1
 413 203 l 1
 413 401 l 1
 243 401 l 1
418 401 m 1
 418 203 l 1
 642 203 l 1
 642 401 l 1
 418 401 l 1
69 196 m 1
 69 -2 l 1
 235 -2 l 1
 235 196 l 1
 69 196 l 1
243 196 m 1
 243 -2 l 1
 413 -2 l 1
 413 196 l 1
 243 196 l 1
418 196 m 1
 418 -2 l 1
 642 -2 l 1
 642 196 l 1
 418 196 l 1
69 -7 m 1
 69 -377 l 1
 235 -377 l 1
 235 -7 l 1
 69 -7 l 1
243 -7 m 1
 243 -377 l 1
 413 -377 l 1
 413 -7 l 1
 243 -7 l 1
418 -7 m 1
 418 -377 l 1
 642 -377 l 1
 642 -7 l 1
 418 -7 l 1
EndSplineSet
Validated: 1
Comment: "." 
EndChar

StartChar: exclamdown
Encoding: 161 161 102
Width: 240
VWidth: -80
Flags: W
HStem: 676.172 62.2188<106.398 133.681> 766.047 62.2188<106.398 133.681>
VStem: 44 62.2188<738.585 765.867> 76.1875 88.5938<8.10194 611.742> 133.875 62.25<738.585 765.868>
LayerCount: 2
Fore
SplineSet
120.062 1.73438 m 0xd0
 95.375 1.73438 76.1875 21.4287 76.1875 45.7031 c 2
 76.1875 574.141 l 2
 76.1875 598.415 95.374 618.109 120.062 618.109 c 0
 144.733 618.109 164.781 598.425 164.781 574.172 c 2
 164.781 45.6406 l 2
 164.754 21.3877 144.733 1.73438 120.062 1.73438 c 0xd0
120.031 676.172 m 0
 78.042 676.172 44 710.246 44 752.234 c 0
 44 794.223 78.042 828.266 120.031 828.266 c 0
 162.021 828.266 196.125 794.224 196.125 752.234 c 0xe8
 196.125 710.245 162.021 676.172 120.031 676.172 c 0
120.062 738.391 m 0
 127.697 738.391 133.875 744.6 133.875 752.234 c 0
 133.875 759.869 127.697 766.047 120.062 766.047 c 0
 112.428 766.047 106.219 759.869 106.219 752.234 c 0
 106.219 744.6 112.428 738.391 120.062 738.391 c 0
EndSplineSet
Validated: 1
EndChar

StartChar: brokenbar
Encoding: 166 166 103
Width: 196
VWidth: -80
Flags: W
VStem: 54 88.5938<-19.3121 354.265 462.688 808.265>
LayerCount: 2
Fore
SplineSet
97.875 814.633 m 0
 122.546 814.633 142.594 794.979 142.594 770.727 c 2
 142.594 500.227 l 2
 142.594 475.974 122.546 456.32 97.875 456.32 c 0
 73.1875 456.32 54 476.015 54 500.289 c 2
 54 770.664 l 2
 54 794.938 73.1875 814.633 97.875 814.633 c 0
97.875 360.633 m 0
 122.546 360.633 142.594 340.979 142.594 316.727 c 2
 142.594 18.2266 l 2
 142.594 -6.02637 122.546 -25.6797 97.875 -25.6797 c 0
 73.1875 -25.6797 54 -5.98535 54 18.2891 c 2
 54 316.664 l 2
 54 340.938 73.1875 360.633 97.875 360.633 c 0
EndSplineSet
Validated: 1
EndChar

StartChar: copyright
Encoding: 169 169 104
Width: 779
VWidth: -80
Flags: W
HStem: 140.72 88.7188<286.894 492.357> 283.345 88.7188<323.658 459.83> 395.075 20G<493.25 503.36> 608.595 88.6875<323.658 458.471> 751.251 88.7188<286.894 492.357>
VStem: 40 88.7188<387.613 593.076> 184.062 88.75<422.935 557.746> 650.532 88.7178<387.613 593.076>
LayerCount: 2
Fore
SplineSet
389.625 839.97 m 0
 582.628 839.97 739.25 683.347 739.25 490.345 c 0
 739.25 297.343 582.628 140.72 389.625 140.72 c 0
 196.623 140.72 40 297.343 40 490.345 c 0
 40 683.347 196.623 839.97 389.625 839.97 c 0
389.625 751.251 m 0
 245.597 751.251 128.719 634.372 128.719 490.345 c 0
 128.719 346.316 245.597 229.438 389.625 229.438 c 0
 533.653 229.438 650.532 346.316 650.532 490.345 c 0
 650.532 634.372 533.653 751.251 389.625 751.251 c 0
391.062 697.282 m 0
 448.188 697.282 500.252 674.409 537.407 636.657 c 0
 544.761 629.185 547.498 620.438 547.498 611.945 c 0
 547.498 598.654 540.795 585.983 534.594 579.782 c 0
 527.712 572.9 512.529 565.137 497.715 565.137 c 0
 489.415 565.137 481.23 567.574 474.688 573.97 c 0
 453.04 595.127 423.706 608.595 391.062 608.595 c 0
 325.775 608.595 272.812 555.632 272.812 490.345 c 0
 272.812 425.058 325.775 372.063 391.062 372.063 c 0
 423.706 372.063 453.784 384.844 474.688 406.72 c 0
 479.954 412.231 488.561 415.075 497.94 415.075 c 0
 508.779 415.075 520.651 411.276 529.594 403.407 c 0
 539.691 394.521 545.824 380.125 545.824 366.815 c 0
 545.824 358.14 543.219 349.926 537.407 344.001 c 0
 500.312 306.182 448.188 283.345 391.062 283.345 c 0
 276.81 283.345 184.062 376.091 184.062 490.345 c 0
 184.062 604.598 276.81 697.282 391.062 697.282 c 0
EndSplineSet
Validated: 1
EndChar

StartChar: degree
Encoding: 176 176 105
Width: 389
VWidth: -80
Flags: W
HStem: 485.625 88.7188<147.471 242.439> 706.531 89<147.471 242.439>
VStem: 40 88.7178<592.941 687.918> 260.875 89<592.941 687.918>
LayerCount: 2
Fore
SplineSet
195.093 795.531 m 0
 280.623 795.531 349.875 725.967 349.875 640.438 c 0
 349.875 554.907 280.623 485.625 195.093 485.625 c 0
 109.562 485.625 40 554.907 40 640.438 c 0
 40 725.967 109.562 795.531 195.093 795.531 c 0
194.875 706.531 m 0
 158.391 706.531 128.718 676.857 128.718 640.375 c 0
 128.718 603.892 158.391 574.344 194.875 574.344 c 0
 231.357 574.344 260.875 603.892 260.875 640.375 c 0
 260.875 676.857 231.357 706.531 194.875 706.531 c 0
EndSplineSet
Validated: 1
EndChar

StartChar: plusminus
Encoding: 177 177 106
Width: 505
VWidth: -285
Flags: W
HStem: 50.6816 88.5938<52.3676 208.406 297 453.047> 246.682 88.5938<52.3676 206.869 298.538 453.047>
VStem: 208.406 88.5938<139.275 245.144 336.813 491.314>
LayerCount: 2
Fore
SplineSet
253.125 497.682 m 0
 277.813 497.682 297 477.987 297 453.713 c 2
 297 364.869 l 2
 297 350.909 312.665 335.275 326.625 335.275 c 2
 415.469 335.275 l 2
 439.743 335.275 459.406 316.089 459.406 291.4 c 0
 459.406 266.729 439.753 246.682 415.5 246.682 c 2
 326.625 246.682 l 2
 312.663 246.682 297 231.019 297 217.057 c 2
 297 158.721 l 2
 297 149.454 307.601 139.275 316.867 139.275 c 2
 415.469 139.275 l 2
 439.743 139.275 459.406 120.089 459.406 95.4004 c 0
 459.406 70.7295 439.753 50.6816 415.5 50.6816 c 2
 89.9375 50.6816 l 2
 65.6855 50.6816 46 70.7295 46 95.4004 c 0
 46 120.089 65.6943 139.275 89.9688 139.275 c 2
 188.672 139.275 l 2
 197.907 139.275 208.406 149.485 208.406 158.721 c 2
 208.406 217.057 l 2
 208.406 231.021 192.745 246.682 178.781 246.682 c 2
 89.9375 246.682 l 2
 65.6855 246.682 46 266.729 46 291.4 c 0
 46 316.089 65.6943 335.275 89.9688 335.275 c 2
 178.812 335.275 l 2
 192.772 335.275 208.406 350.94 208.406 364.9 c 2
 208.406 453.744 l 2
 208.406 477.996 228.454 497.682 253.125 497.682 c 0
EndSplineSet
Validated: 1
EndChar

StartChar: questiondown
Encoding: 191 191 107
Width: 493
VWidth: -80
Flags: W
HStem: -2.99121 88.6875<179.562 314.374> 674.134 62.2188<234.288 261.571> 764.009 62.2188<234.477 261.396>
VStem: 40 88.6875<136.546 272.499> 171.845 62.25<736.547 763.829> 203.125 88.6562<405.741 609.704> 261.75 62.2197<736.547 763.829> 365.22 88.75<136.546 275.444>
LayerCount: 2
Fore
SplineSet
437.422 285.024 m 0xf5
 447.871 260.294 453.97 232.465 453.97 203.946 c 0
 453.97 89.6934 361.223 -2.99121 246.97 -2.99121 c 0
 132.716 -2.99121 40 89.6934 40 203.946 c 0
 40 290.21 93.0664 361.775 162.345 393.009 c 0
 184.63 402.452 203.125 425.905 203.125 454.165 c 2
 203.188 572.134 l 2
 203.188 596.387 223.235 616.071 247.906 616.071 c 0
 272.595 616.071 291.781 596.377 291.781 572.103 c 2
 291.781 454.103 l 2
 291.781 389.923 253.954 337.437 201.031 312.978 c 1
 158.868 294.922 128.688 254.324 128.688 203.946 c 0
 128.688 138.66 181.683 85.6973 246.97 85.6963 c 0
 312.256 85.6963 365.22 138.66 365.22 203.946 c 0
 365.22 220.258 361.917 235.821 355.938 249.962 c 0
 353.533 255.637 352.387 261.52 352.387 267.296 c 0
 352.387 284.253 362.273 300.293 379.281 307.446 c 0
 384.898 309.809 390.735 310.92 396.485 310.92 c 0
 413.618 310.92 429.978 301.055 437.422 285.024 c 0xf5
247.938 674.134 m 0
 205.948 674.134 171.845 708.207 171.845 750.196 c 0
 171.845 792.186 205.948 826.229 247.938 826.228 c 0
 289.927 826.229 323.97 792.186 323.97 750.196 c 0xfb
 323.97 708.208 289.927 674.135 247.938 674.134 c 0
247.906 736.353 m 0
 255.541 736.354 261.75 742.562 261.75 750.196 c 0
 261.75 757.832 255.541 764.009 247.904 764.009 c 0
 240.271 764.009 234.095 757.831 234.095 750.196 c 0
 234.095 742.562 240.271 736.354 247.906 736.353 c 0
EndSplineSet
Validated: 33
EndChar

StartChar: section
Encoding: 167 167 108
Width: 517
VWidth: -80
Flags: W
HStem: -384.317 88.6875<192.441 325.846> 0.557617 88.75<192.13 326.294> 325.808 88.75<192.04 326.023> 710.745 88.6875<192.125 325.411>
VStem: 52.001 88.7188<-244.612 -139.831 140.896 275.431 377.308 660.294> 377.376 88.5938<-245.178 37.8076 139.895 273.765 554.946 659.927>
LayerCount: 2
Fore
SplineSet
259.001 0.557617 m 0
 145.596 0.557617 52.001 92.5352 52.001 207.558 c 2
 52.001 601.276 l 2
 51.6064 710.962 147.688 799.433 259.001 799.433 c 0
 346.047 799.433 463.672 737.27 465.97 592.495 c 0
 465.937 568.25 446.762 548.589 422.095 548.589 c 0
 397.424 548.589 377.402 568.243 377.282 592.495 c 0
 377.282 657.781 324.287 710.745 259.001 710.745 c 0
 193.714 710.745 140.626 657.782 140.626 592.495 c 0
 140.61 591.026 140.609 589.558 140.595 588.089 c 2
 140.595 377.308 l 1
 170.164 397.155 208.05 414.558 258.97 414.558 c 0
 373.629 414.558 465.97 321.407 465.97 207.558 c 2
 465.97 -186.161 l 2
 466.364 -295.846 370.282 -384.317 258.97 -384.317 c 0
 171.372 -384.317 54.2188 -321.589 52.001 -177.38 c 0
 52.0342 -153.135 71.21 -133.474 95.876 -133.474 c 0
 120.547 -133.474 140.567 -153.127 140.688 -177.38 c 0
 140.688 -242.666 193.683 -295.63 258.97 -295.63 c 0
 324.257 -295.63 377.345 -242.667 377.345 -177.38 c 0
 377.359 -175.911 377.36 -174.442 377.376 -172.974 c 2
 377.376 37.8076 l 1
 349.138 18.4346 309.937 0.557617 259.001 0.557617 c 0
377.251 207.558 m 0
 377.251 274.897 322.259 325.808 258.97 325.808 c 0
 192.408 325.808 140.72 271.533 140.72 207.558 c 0
 140.72 140.587 195.436 89.3076 259.001 89.3076 c 0
 326.064 89.3076 377.251 144.067 377.251 207.558 c 0
EndSplineSet
Validated: 33
EndChar

StartChar: registered
Encoding: 174 174 109
Width: 779
VWidth: -80
Flags: W
HStem: 141.375 88.7188<286.894 492.356> 473.938 88.5938<405.809 441.131> 639.719 88.625<366.465 442.365> 751.906 88.7188<286.894 492.357>
VStem: 40 88.7188<388.269 593.731> 276.906 88.5938<279.493 381.219 562.531 638.846> 446.188 88.6875<567.228 634.889> 650.531 88.7188<388.269 593.731>
LayerCount: 2
Fore
SplineSet
389.625 840.625 m 0
 582.628 840.625 739.25 684.002 739.25 491 c 0
 739.25 297.998 582.627 141.375 389.625 141.375 c 0
 196.623 141.375 40 297.998 40 491 c 0
 40 684.002 196.623 840.625 389.625 840.625 c 0
389.625 751.906 m 0
 245.597 751.906 128.719 635.027 128.719 491 c 0
 128.719 346.972 245.597 230.094 389.625 230.094 c 0
 533.653 230.094 650.531 346.972 650.531 491 c 0
 650.531 635.027 533.653 751.906 389.625 751.906 c 0
423.219 473.938 m 2
 407.625 473.938 l 2
 403.188 473.938 403.162 468.838 405.938 466.062 c 2
 524.25 347.75 l 2
 532.722 339.278 536.943 328.136 536.943 316.925 c 0
 536.943 305.443 532.515 293.89 523.688 285.062 c 0
 515.012 276.387 503.854 272.11 492.718 272.11 c 0
 481.446 272.11 470.196 276.491 461.562 285.125 c 2
 365.5 381.219 l 1
 365.5 317.031 l 2
 365.5 292.779 345.452 273.125 320.781 273.125 c 0
 296.093 273.125 276.906 292.819 276.906 317.094 c 2
 276.906 634 l 2
 276.906 686.006 319.291 728.344 371.312 728.344 c 0
 371.719 728.344 372.106 728.323 372.5 728.312 c 2
 407.781 728.312 l 1
 423.625 728.281 l 2
 481.403 727.881 534.875 665.846 534.875 601 c 0
 534.875 536.214 486.938 473.936 423.802 473.936 c 0
 423.219 473.938 l 2
370.656 639.719 m 2
 367.905 639.4 365.5 636.77 365.5 634.156 c 2
 365.5 562.531 l 1
 407.719 562.531 l 2
 428.971 562.531 446.188 579.811 446.188 601.062 c 0
 446.188 622.314 428.971 639.719 407.719 639.719 c 2
 370.656 639.719 l 2
EndSplineSet
Validated: 1
EndChar

StartChar: trademark
Encoding: 261 8482 110
Width: 1026
VWidth: -80
Flags: W
HStem: 560.25 87.6875<52.9288 203.655 292.28 382.468 495.082 608.498 745.724 861.792> 776.156 20G<235.218 260.542>
VStem: 203.655 88.625<372.842 560.812 649.406 789.789> 382.468 88.5938<323.594 535.979> 634.468 88.5938<237.868 534.554> 885.468 88.5938<237.868 536.867>
LayerCount: 2
Fore
SplineSet
247.562 796.156 m 0
 273.523 796.156 292.03 775.615 292.28 752.344 c 2
 292.28 649.406 l 1
 426.343 649.406 l 2
 443.961 649.406 459.212 639.379 466.5 624.812 c 1
 491.654 639.506 520.915 647.938 552.125 647.938 c 0
 602.027 647.938 646.909 626.368 678.03 592.094 c 1
 709.163 626.39 754.077 647.938 804 647.938 c 0
 896.094 647.938 975.748 586.949 974 483.188 c 0
 974.001 483.167 974.062 275.406 974.062 275.406 c 0
 974.035 251.154 954.015 231.5 929.343 231.5 c 0
 904.654 231.5 885.468 251.194 885.468 275.469 c 2
 885.5 490.219 l 2
 885.529 530.907 845.285 560.25 804 560.25 c 0
 763.856 560.25 721.9 530.427 723.062 493.469 c 1
 723.062 275.406 l 0
 723.035 251.154 703.014 231.5 678.343 231.5 c 0
 653.654 231.5 634.468 251.194 634.468 275.469 c 2
 634.093 486.344 l 2
 634.417 526.776 594.739 560.25 552.125 560.25 c 0
 511.771 560.25 471.077 527.656 471.062 492.875 c 2
 471.062 275.406 l 0
 471.035 251.154 451.014 231.5 426.343 231.5 c 2
 410.655 231.5 l 2
 298.335 231.5 203.655 321.571 203.655 432.656 c 2
 203.655 560.812 l 1
 89.9053 560.812 l 2
 65.6523 560.812 46 580.86 46 605.531 c 0
 46 630.22 65.6934 649.406 89.9678 649.406 c 2
 203.687 649.406 l 1
 203.687 752.188 l 2
 203.687 776.462 222.874 796.156 247.562 796.156 c 0
292.28 560.812 m 1
 292.28 438.219 l 2
 292.524 382.881 330.915 336.266 382.468 323.594 c 1
 382.468 560.812 l 1
 292.28 560.812 l 1
EndSplineSet
Validated: 33
EndChar

StartChar: i_alternate.262
Encoding: 262 -1 111
Width: 328
VWidth: -540
Flags: W
HStem: 0.375 88.5938<52.3676 119.406 207.969 276.539> 326.281 88.5938<52.3676 119.406> 489.531 62.2188<124.273 151.556> 579.406 62.2188<124.273 151.556>
VStem: 46 236.906<6.86741 82.7229> 61.875 62.2188<551.929 579.212> 119.406 88.5625<88.9688 326.277> 151.75 62.25<551.929 579.212>
LayerCount: 2
Fore
SplineSet
137.906 641.625 m 0xf5
 179.896 641.625 214 607.552 214 565.562 c 0
 214 523.573 179.896 489.531 137.906 489.531 c 0
 95.917 489.531 61.875 523.574 61.875 565.562 c 0
 61.875 607.551 95.917 641.625 137.906 641.625 c 0xf5
137.938 579.406 m 0
 130.303 579.406 124.094 573.197 124.094 565.562 c 0
 124.094 557.928 130.303 551.75 137.938 551.75 c 0
 145.572 551.75 151.75 557.928 151.75 565.562 c 0
 151.75 573.197 145.572 579.406 137.938 579.406 c 0
89.9688 414.875 m 2
 165.594 414.844 l 2
 187.761 414.962 207.968 397.918 207.969 375.562 c 2
 207.969 99.4062 l 2xf2
 208.061 93.2793 210.476 89.0859 218.875 88.9688 c 2
 238.938 88.9688 l 2
 263.212 88.9688 282.906 69.7812 282.906 45.0938 c 0
 282.906 20.4229 263.221 0.402344 238.938 0.375 c 2
 89.9375 0.375 l 2
 65.6855 0.402344 46 20.4229 46 45.0938 c 0xf8
 46 69.7822 65.6943 88.9688 89.9688 88.9688 c 2
 109.625 88.9688 l 2
 115.71 89.0049 119.332 93.1094 119.406 98.625 c 2
 119.406 317.438 l 2xf2
 119.29 321.707 115.541 326.254 111.094 326.281 c 2
 89.9375 326.281 l 2
 65.6855 326.309 46 346.329 46 371 c 0xf8
 46 395.688 65.6943 414.875 89.9688 414.875 c 2
EndSplineSet
Validated: 33
EndChar

StartChar: j_alternate.263
Encoding: 263 -1 112
Width: 259
VWidth: -540
Flags: W
HStem: -383.953 88.6875<-66.7194 68.3907> 326.609 88.5938<52.2738 119.312> 489.859 62.2188<124.117 151.4> 579.734 62.2188<124.117 151.4>
VStem: -206 88.6875<-242.538 -139.467> 45.9062 161.969<333.102 408.958> 61.7188 62.2188<552.258 579.54> 119.312 88.5938<-243.373 326.605> 151.594 62.25<552.257 579.54>
LayerCount: 2
Fore
SplineSet
137.75 641.953 m 0xfa80
 179.739 641.953 213.844 607.88 213.844 565.891 c 0
 213.844 523.901 179.739 489.859 137.75 489.859 c 0
 95.7607 489.859 61.7188 523.902 61.7188 565.891 c 0
 61.7188 607.879 95.7607 641.953 137.75 641.953 c 0xfa80
137.781 579.734 m 0
 130.146 579.734 123.938 573.525 123.938 565.891 c 0
 123.938 558.256 130.146 552.078 137.781 552.078 c 0
 145.416 552.078 151.594 558.256 151.594 565.891 c 0
 151.594 573.525 145.416 579.734 137.781 579.734 c 0
0.96875 -383.953 m 0
 -92.2529 -383.953 -203.788 -316.391 -206 -177.016 c 0
 -205.967 -152.771 -186.792 -133.109 -162.125 -133.109 c 0
 -137.454 -133.109 -117.433 -152.764 -117.312 -177.016 c 0
 -117.312 -242.302 -64.3184 -295.266 0.96875 -295.266 c 0
 66.2559 -295.266 119.344 -242.303 119.344 -177.016 c 0
 119.344 -175.734 119.323 -174.453 119.312 -173.172 c 2
 119.312 317.766 l 2xf9
 119.196 322.035 115.447 326.582 111 326.609 c 2
 89.8438 326.609 l 2
 65.5918 326.637 45.9062 346.657 45.9062 371.328 c 0
 45.9062 396.017 65.6006 415.203 89.875 415.203 c 2
 165.5 415.172 l 2
 187.667 415.29 207.875 398.246 207.875 375.891 c 2xfc
 207.906 -172.422 l 2
 207.906 -173.953 207.906 -175.484 207.906 -177.016 c 0xf9
 207.906 -291.27 115.222 -383.953 0.96875 -383.953 c 0
EndSplineSet
Validated: 33
EndChar

StartChar: Et.264
Encoding: 264 -1 113
Width: 690
VWidth: -80
Flags: W
HStem: -1.82031 88.5625<147.235 422.945 528.322 637.789> 325.336 88.5938<140.625 372.132 475.562 637.413> 708.18 88.5938<145.926 480.977>
VStem: 52 88.625<93.4232 325.336 413.93 704.295> 386.97 88.5928<139.522 325.336 413.93 599.218>
LayerCount: 2
Fore
SplineSet
179.312 -1.82031 m 2
 116.837 -1.82031 52.0635 44.9785 52 125.273 c 2
 52 681.43 l 2
 52.0518 744.048 113.137 796.773 179.312 796.773 c 2
 443.375 796.773 l 2
 467.649 796.773 487.345 777.586 487.345 752.898 c 0
 487.344 728.228 467.658 708.206 443.406 708.18 c 2
 179.25 708.18 l 2
 157.669 708.18 140.071 690.604 140.625 668.305 c 2
 140.625 413.93 l 1
 334.531 413.93 l 2
 358.806 413.93 378.5 394.742 378.5 370.055 c 0
 378.5 345.384 358.847 325.363 334.531 325.336 c 2
 140.625 325.336 l 1
 140.625 126.586 l 2
 140.989 99.7246 161.672 86.6738 179.25 86.7422 c 0
 180.688 86.748 385.345 86.7734 385.345 86.7734 c 2
 409.618 86.7734 429.312 67.5859 429.312 42.8984 c 0
 429.312 18.2275 409.658 -1.79395 385.375 -1.82031 c 2
 179.312 -1.82031 l 2
430.845 605.586 m 0
 456.806 605.586 475.312 585.044 475.562 561.773 c 2
 475.562 413.93 l 1
 599.812 413.93 l 2
 624.086 413.93 643.781 394.742 643.781 370.055 c 0
 643.781 345.384 624.127 325.362 599.875 325.336 c 2
 475.562 325.336 l 1
 475.562 204.898 l 2
 475.789 153.518 512.915 86.8965 599.344 86.8965 c 0
 599.624 86.8965 599.905 86.8975 600.188 86.8984 c 0
 624.462 86.8984 644.156 67.7109 644.156 43.0234 c 0
 644.156 18.3525 624.472 -1.79297 600.22 -1.82031 c 2
 593.938 -1.82031 l 2
 481.617 -1.82031 386.938 88.25 386.938 199.336 c 2
 386.97 561.617 l 2
 386.97 585.892 406.156 605.586 430.845 605.586 c 0
EndSplineSet
Validated: 33
EndChar

StartChar: w_alternate.265
Encoding: 265 -1 114
Width: 668
VWidth: -80
Flags: W
HStem: -1.55859 21.001G<189.538 208.871 459.273 478.606> 395.833 20G<88.0435 100.125 568.02 580.101>
LayerCount: 2
Fore
SplineSet
76.666 413.705 m 0
 81.2617 415.159 85.8271 415.833 90.2598 415.833 c 0
 109.989 415.833 127.088 402.494 132.541 385.33 c 2
 207.322 149.049 l 1
 287.447 312.799 l 2
 295.722 329.709 314.774 337.994 333.847 337.994 c 0
 353.183 337.994 372.536 329.479 380.697 312.799 c 2
 460.822 149.049 l 1
 535.604 385.33 l 2
 541.057 402.494 558.155 415.833 577.885 415.833 c 0
 582.317 415.833 586.883 415.159 591.479 413.705 c 0
 610.443 407.703 622.145 390.591 622.145 372.062 c 0
 622.145 367.596 621.464 363.045 620.041 358.549 c 2
 515.761 29.0801 l 2
 509.262 8.5498 488.788 -1.55762 468.425 -1.55762 c 0
 450.122 -1.55762 431.909 6.60742 424.011 22.7051 c 2
 334.072 206.549 l 1
 244.136 22.7051 l 2
 236.234 6.60547 218.021 -1.55859 199.72 -1.55859 c 0
 179.356 -1.55859 158.884 8.54883 152.386 29.0801 c 2
 48.1035 358.549 l 2
 46.6807 363.045 46 367.596 46 372.062 c 0
 46 390.591 57.7012 407.703 76.666 413.705 c 0
EndSplineSet
Validated: 1
EndChar

StartChar: W_alternate.266
Encoding: 266 -1 115
Width: 695
VWidth: -80
Flags: W
HStem: 776.937 19.9902G<77.1841 90.5908 594.803 606.695>
LayerCount: 2
Fore
SplineSet
353.466 336.34 m 2
 353.466 338.064 352.315 342.09 347.716 342.09 c 0
 344.491 342.09 342.166 339.77 341.966 336.402 c 2
 327.419 95.3086 l 2
 324.283 43.3398 285.248 1.05859 233.185 1.05859 c 0
 186.002 1.05859 146.62 36.874 139.685 82.1211 c 2
 46.4346 746.84 l 2
 46.1426 748.922 46 750.994 46 753.047 c 0
 46 776.315 64.2852 796.937 90.083 796.937 c 0
 90.5908 796.934 l 0
 112.276 796.722 131.076 780.977 134.153 759.215 c 2
 227.278 95.4023 l 2
 227.787 91.7812 229.842 89.6523 233.091 89.6523 c 0
 235.667 89.6523 238.412 91.2383 238.56 93.6836 c 2
 253.56 342.027 l 2
 256.546 391.418 297.68 430.652 347.81 430.652 c 0
 397.939 430.652 438.93 390.794 441.903 341.402 c 2
 456.81 95.4023 l 2
 456.993 90.6328 460.855 89.6523 462.56 89.6523 c 0
 464.365 89.6523 467.622 90.2568 468.341 95.4023 c 2
 561.466 759.215 l 2
 564.532 780.901 583.93 796.927 605.676 796.927 c 0
 607.714 796.927 609.772 796.786 611.841 796.496 c 0
 634.135 793.368 649.626 774.644 649.626 753.14 c 0
 649.626 751.062 649.481 748.958 649.185 746.84 c 2
 556.216 84.2461 l 1
 550.737 37.4023 510.972 1.05859 462.653 1.05859 c 0
 412.471 1.05859 371.365 40.6406 368.372 90.0898 c 2
 353.466 336.34 l 2
EndSplineSet
Validated: 1
EndChar

StartChar: M_alternate.267
Encoding: 267 -1 116
Width: 697
VWidth: -80
Flags: W
HStem: -2.32812 88.7188<296.924 400.714> 776.328 20G<83.5361 108.21 588.411 613.086>
VStem: 52 88.5938<6.35194 214.641 502.496 789.964> 556.875 88.5938<6.35194 214.734 508.255 789.964>
LayerCount: 2
Fore
SplineSet
95.875 796.328 m 0
 120.546 796.328 140.566 776.643 140.594 752.391 c 2
 140.594 743.797 l 1
 142.035 380.122 234.719 86.3906 348.719 86.3906 c 0
 463.613 86.3906 556.869 384.739 556.875 752.391 c 0
 556.892 776.65 576.072 796.328 600.75 796.328 c 0
 625.422 796.328 645.441 776.643 645.469 752.391 c 2
 645.469 43.9219 l 2
 645.441 19.6699 625.42 -0.015625 600.75 -0.015625 c 0
 576.062 -0.015625 556.875 19.6787 556.875 43.9531 c 2
 556.875 214.734 l 1
 503.304 80.5332 429.797 -2.32812 348.719 -2.32812 c 0
 267.658 -2.32812 194.162 80.4932 140.594 214.641 c 1
 140.594 43.9219 l 2
 140.566 19.6699 120.546 -0.015625 95.875 -0.015625 c 0
 71.1875 -0.015625 52 19.6787 52 43.9531 c 2
 52 752.391 l 0
 52.0166 776.65 71.1973 796.328 95.875 796.328 c 0
EndSplineSet
Validated: 1
EndChar
